<?xml version="1.0" encoding="UTF-8" standalone="no"?>
<svg xmlns="http://www.w3.org/2000/svg" id="svg1325" width="64" height="64" version="1.0">
    <path d="M31.188 0C13.904.438 0 14.612 0 32c0 17.664 14.336 32 32 32s32-14.336 32-32S49.664 0 32 0c-.276 0-.538-.007-.813 0zm-.032 5.5c.284-.009.558 0 .844 0 14.628 0 26.5 11.872 26.5 26.5S46.628 58.5 32 58.5 5.5 46.628 5.5 32c0-14.342 11.423-26.049 25.656-26.5z" id="path1334" opacity="1" fill="#000" fill-opacity="1" fill-rule="nonzero" stroke="none" stroke-width="259.507" stroke-linecap="butt" stroke-linejoin="round" stroke-miterlimit="4" stroke-dasharray="none" stroke-dashoffset="0" stroke-opacity="1"/>
    <path id="path1336" d="M30.01 31.878a26.564 26.564 0 11-53.129 0 26.564 26.564 0 1153.129 0z" transform="matrix(.99758 0 0 .99758 28.563 .199)" opacity="1" fill="#fff" fill-opacity="1" fill-rule="nonzero" stroke="none" stroke-width="259.507" stroke-linecap="butt" stroke-linejoin="round" stroke-miterlimit="4" stroke-dasharray="none" stroke-dashoffset="0" stroke-opacity="1"/>
    <path d="M18.116 26.785h-2.741l6.219 6.968 6.219-6.968h-2.244c.486-3.4 3.477-5.587 6.931-5.313.137.01.268 0 .406 0 5.628 0 7.847 4.256 8.032 10.531.192 6.55-3.604 10.62-8.032 10.532-4.673-.093-6.444-2.328-7.125-5.72h-8.343c1.373 7.812 7.123 12.393 15.28 12.407 9.235.016 15.907-7.71 15.907-17.219 0-10.155-6.67-17.218-15.906-17.218-.274 0-.542-.015-.813 0-.065.003-.122-.002-.187 0-5.772.096-13.603 4.14-13.603 12z" id="path2371" opacity="1" fill="#000" fill-opacity="1" fill-rule="nonzero" stroke="none" stroke-width="259.507" stroke-linecap="butt" stroke-linejoin="round" stroke-miterlimit="4" stroke-dasharray="none" stroke-dashoffset="0" stroke-opacity="1"/>
</svg>
