<?xml version="1.0" encoding="UTF-8" standalone="no"?>
<svg xmlns="http://www.w3.org/2000/svg" xmlns:xlink="http://www.w3.org/1999/xlink" version="1.0" width="744.094" height="300.36" id="svg2">
    <defs id="defs4">
        <radialGradient cx="331.552" cy="130.511" r="131.929" fx="331.552" fy="130.511" id="radialGradient3646" xlink:href="#linearGradient3640" gradientUnits="userSpaceOnUse" gradientTransform="matrix(-.69844 .69843 -.70659 -.70659 713.838 153.46)"/>
        <linearGradient id="linearGradient3640">
            <stop offset="0" id="stop3642" stop-color="#000" stop-opacity="1"/>
            <stop offset="1" id="stop3644" stop-color="#fffffd" stop-opacity="0"/>
        </linearGradient>
    </defs>
    <g id="layer1" fill-opacity="1" stroke="none" stroke-width="1" stroke-linecap="butt" stroke-linejoin="miter" stroke-opacity="1">
        <path d="M515.55 248.368c11.518 51.92-10.435 105.486-55.34 135.03-44.905 29.544-103.614 29.05-147.997-1.248-44.384-30.298-65.399-84.226-52.977-135.944" transform="matrix(2.55435 0 0 1.99687 -633.229 -492.892)" id="path3638" opacity="1" fill="url(#radialGradient3646)" fill-rule="evenodd"/>
        <path d="M314.175 150.786c-9.661 0-18.58-1.426-26.756-4.278-8.177-2.851-15.204-7.1-21.082-12.745s-10.432-12.687-13.662-21.125c-3.23-8.439-4.844-18.186-4.844-29.244 0-10.3 1.542-19.641 4.626-28.021 3.085-8.38 7.566-15.568 13.444-21.562 5.645-5.762 12.643-10.214 20.994-13.356 8.351-3.143 17.473-4.714 27.367-4.714 5.47 0 10.402.305 14.796.916 4.394.612 8.453 1.412 12.178 2.4 3.9 1.107 7.435 2.343 10.606 3.71 3.172 1.369 5.95 2.634 8.337 3.798V58.08h-3.841c-1.63-1.397-3.681-3.056-6.154-4.976-2.474-1.92-5.282-3.812-8.424-5.674-3.201-1.862-6.664-3.434-10.388-4.714-3.725-1.28-7.711-1.92-11.96-1.92-4.714 0-9.195.741-13.443 2.225-4.248 1.484-8.177 3.943-11.785 7.377-3.434 3.317-6.212 7.71-8.337 13.181-2.124 5.47-3.186 12.105-3.186 19.903 0 8.148 1.15 14.957 3.448 20.427 2.3 5.471 5.194 9.778 8.686 12.92 3.55 3.2 7.507 5.485 11.872 6.853 4.365 1.367 8.671 2.051 12.92 2.051 4.074 0 8.104-.61 12.09-1.833 3.987-1.222 7.668-2.88 11.043-4.976a73.097 73.097 0 007.944-5.412c2.444-1.92 4.452-3.58 6.023-4.976h3.492v31.077a811.163 811.163 0 01-9.34 4.103 76.88 76.88 0 01-9.341 3.317c-4.249 1.222-8.235 2.153-11.96 2.794-3.724.64-8.845.96-15.363.96zm129.545 0c-9.66 0-18.58-1.426-26.756-4.278-8.176-2.851-15.204-7.1-21.081-12.745-5.878-5.645-10.432-12.687-13.662-21.125-3.23-8.439-4.845-18.186-4.845-29.244 0-10.3 1.542-19.641 4.627-28.021 3.084-8.38 7.565-15.568 13.443-21.562 5.645-5.762 12.643-10.214 20.994-13.356 8.352-3.143 17.474-4.714 27.367-4.714 5.47 0 10.403.305 14.797.916 4.394.612 8.453 1.412 12.177 2.4 3.9 1.107 7.435 2.343 10.607 3.71 3.171 1.369 5.95 2.634 8.336 3.798V58.08h-3.84c-1.63-1.397-3.682-3.056-6.155-4.976-2.473-1.92-5.281-3.812-8.424-5.674-3.2-1.862-6.663-3.434-10.388-4.714-3.724-1.28-7.71-1.92-11.96-1.92-4.713 0-9.194.741-13.443 2.225-4.248 1.484-8.176 3.943-11.784 7.377-3.434 3.317-6.213 7.71-8.337 13.181-2.124 5.47-3.186 12.105-3.186 19.903 0 8.148 1.149 14.957 3.448 20.427 2.299 5.471 5.194 9.778 8.686 12.92 3.55 3.2 7.507 5.485 11.872 6.853 4.364 1.367 8.671 2.051 12.92 2.051 4.073 0 8.103-.61 12.09-1.833 3.986-1.222 7.667-2.88 11.042-4.976a73.097 73.097 0 007.944-5.412c2.444-1.92 4.452-3.58 6.024-4.976h3.491v31.077a811.163 811.163 0 01-9.34 4.103 76.88 76.88 0 01-9.34 3.317c-4.25 1.222-8.236 2.153-11.96 2.794-3.725.64-8.846.96-15.364.96z" transform="translate(-2.903 6.773)" id="text6303" font-size="14.898" font-style="normal" font-weight="400" fill="#fff" font-family="Verdana"/>
        <path d="M101.863 188.736c0 1.761-.41 3.503-1.23 5.224a12.427 12.427 0 01-3.448 4.374c-1.62 1.296-3.508 2.309-5.665 3.038-2.157.729-4.754 1.093-7.791 1.093-3.26 0-6.192-.303-8.794-.91-2.602-.608-5.25-1.51-7.943-2.704v-7.534h.425c2.288 1.904 4.93 3.372 7.928 4.405 2.997 1.033 5.812 1.55 8.444 1.55 3.726 0 6.627-.7 8.703-2.097 2.076-1.397 3.114-3.26 3.114-5.589 0-2.005-.491-3.483-1.474-4.435-.982-.952-2.475-1.69-4.48-2.217a44.674 44.674 0 00-4.936-1.003c-1.772-.263-3.65-.597-5.635-1.002-4.01-.85-6.981-2.304-8.915-4.359-1.934-2.055-2.901-4.734-2.901-8.034 0-3.787 1.6-6.89 4.8-9.31 3.199-2.42 7.26-3.63 12.18-3.63 3.18 0 6.095.303 8.748.91 2.653.608 5.002 1.358 7.047 2.249v7.107h-.425c-1.721-1.458-3.984-2.667-6.789-3.63a26.372 26.372 0 00-8.611-1.442c-3.22 0-5.807.668-7.761 2.005-1.955 1.336-2.932 3.057-2.932 5.163 0 1.884.486 3.362 1.458 4.435.972 1.074 2.684 1.894 5.134 2.46 1.296.284 3.139.629 5.528 1.034 2.39.405 4.415.82 6.076 1.245 3.361.891 5.892 2.238 7.593 4.04 1.701 1.802 2.552 4.323 2.552 7.564zm43.377-27.126c1.843 2.025 3.255 4.506 4.237 7.442.982 2.936 1.473 6.268 1.473 9.994s-.5 7.062-1.503 10.008c-1.003 2.947-2.405 5.402-4.207 7.367a18 18 0 01-6.607 4.617c-2.541 1.033-5.442 1.549-8.703 1.549-3.179 0-6.07-.527-8.672-1.58-2.602-1.053-4.815-2.582-6.637-4.586-1.823-2.005-3.225-4.466-4.207-7.382-.982-2.916-1.473-6.247-1.473-9.993 0-3.686.486-6.992 1.458-9.918.972-2.926 2.39-5.432 4.252-7.518 1.782-1.985 3.995-3.503 6.637-4.556 2.643-1.053 5.524-1.58 8.642-1.58 3.24 0 6.151.532 8.733 1.595 2.582 1.063 4.774 2.577 6.577 4.54zm-.547 17.436c0-5.873-1.316-10.404-3.949-13.594-2.632-3.189-6.227-4.784-10.783-4.784-4.597 0-8.207 1.595-10.83 4.784-2.622 3.19-3.933 7.721-3.933 13.594 0 5.933 1.337 10.474 4.01 13.623 2.673 3.15 6.257 4.724 10.753 4.724 4.495 0 8.075-1.575 10.738-4.724 2.662-3.149 3.994-7.69 3.994-13.623zm56.074 22.6h-6.015v-38.973l-12.575 26.518h-3.585l-12.484-26.518v38.972h-5.62v-45.23h8.202l12.06 25.182 11.663-25.181h8.354v45.23zm42.01 0h-29.8v-45.23h29.8v5.346h-23.785v12.393h23.785v5.346h-23.785V196.3h23.785v5.346zm68.862 0h-7.807l-15.127-17.983h-8.475v17.982h-6.014v-45.23h12.666c2.734 0 5.012.178 6.835.532 1.822.355 3.463.987 4.92 1.899 1.641 1.032 2.922 2.334 3.843 3.903.922 1.57 1.382 3.559 1.382 5.969 0 3.26-.82 5.989-2.46 8.186-1.64 2.197-3.898 3.853-6.774 4.967l17.01 19.774zm-14.064-32.503c0-1.296-.228-2.445-.684-3.448-.455-1.002-1.21-1.847-2.263-2.536-.87-.587-1.903-.997-3.098-1.23-1.195-.233-2.602-.35-4.222-.35h-7.078v17.072h6.075c1.904 0 3.564-.167 4.982-.501 1.417-.335 2.622-.957 3.615-1.869a7.988 7.988 0 002.02-2.93c.435-1.104.653-2.507.653-4.208zm35.843 32.502h-17.86v-4.617h5.922v-35.995h-5.923v-4.617h17.861v4.617h-5.923v35.995h5.923v4.617zm48.024-3.341c-2.47 1.134-5.169 2.121-8.095 2.962-2.926.84-5.756 1.26-8.49 1.26-3.523 0-6.753-.486-9.69-1.458-2.936-.972-5.437-2.43-7.503-4.374-2.085-1.964-3.695-4.42-4.83-7.366-1.133-2.947-1.7-6.394-1.7-10.343 0-7.23 2.11-12.935 6.333-17.117 4.222-4.182 10.019-6.273 17.39-6.273 2.572 0 5.2.31 7.883.927 2.683.618 5.574 1.666 8.672 3.144v7.138h-.547c-.628-.486-1.539-1.124-2.734-1.914a25.94 25.94 0 00-3.523-1.974c-1.397-.628-2.982-1.15-4.754-1.564-1.772-.415-3.782-.623-6.03-.623-5.062 0-9.067 1.625-12.013 4.875-2.947 3.25-4.42 7.65-4.42 13.199 0 5.852 1.54 10.403 4.617 13.654 3.078 3.25 7.27 4.875 12.576 4.875 1.944 0 3.883-.192 5.817-.577 1.934-.385 3.63-.881 5.088-1.489V184.18h-12.12v-5.285h18.073v19.41zm45.109 3.341h-6.015v-22.144h-22.57v22.144h-6.014v-45.23h6.015v17.74h22.57v-17.74h6.014v45.23zm44.44-39.883h-16.16v39.883h-6.015v-39.883h-16.16v-5.346h38.334v5.346zm39.002 26.974c0 1.761-.41 3.503-1.23 5.224a12.427 12.427 0 01-3.448 4.374c-1.62 1.296-3.508 2.309-5.665 3.038-2.157.729-4.754 1.093-7.791 1.093-3.26 0-6.192-.303-8.794-.91-2.602-.608-5.25-1.51-7.943-2.704v-7.534h.425c2.288 1.904 4.93 3.372 7.928 4.405 2.997 1.033 5.812 1.55 8.444 1.55 3.726 0 6.627-.7 8.703-2.097 2.076-1.397 3.114-3.26 3.114-5.589 0-2.005-.492-3.483-1.474-4.435-.982-.952-2.475-1.69-4.48-2.217a44.674 44.674 0 00-4.936-1.003 106.58 106.58 0 01-5.635-1.002c-4.01-.85-6.981-2.304-8.915-4.359-1.934-2.055-2.901-4.734-2.901-8.034 0-3.787 1.6-6.89 4.8-9.31 3.199-2.42 7.26-3.63 12.18-3.63 3.18 0 6.095.303 8.748.91 2.653.608 5.002 1.358 7.047 2.249v7.107h-.425c-1.721-1.458-3.984-2.667-6.789-3.63a26.372 26.372 0 00-8.611-1.442c-3.22 0-5.807.668-7.761 2.005-1.955 1.336-2.932 3.057-2.932 5.163 0 1.884.486 3.362 1.458 4.435.972 1.074 2.684 1.894 5.134 2.46 1.296.284 3.139.629 5.528 1.034 2.39.405 4.415.82 6.075 1.245 3.362.891 5.893 2.238 7.594 4.04 1.701 1.802 2.552 4.323 2.552 7.564zm68.953 12.91h-7.806l-15.128-17.983h-8.474v17.982h-6.015v-45.23h12.667c2.734 0 5.012.178 6.834.532 1.823.355 3.463.987 4.921 1.899 1.64 1.032 2.921 2.334 3.843 3.903.921 1.57 1.382 3.559 1.382 5.969 0 3.26-.82 5.989-2.46 8.186-1.64 2.197-3.899 3.853-6.774 4.967l17.01 19.774zm-14.064-32.503c0-1.296-.228-2.445-.683-3.448-.456-1.002-1.21-1.847-2.263-2.536-.871-.587-1.904-.997-3.099-1.23-1.194-.233-2.602-.35-4.222-.35h-7.077v17.072h6.075c1.903 0 3.564-.167 4.981-.501 1.418-.335 2.623-.957 3.615-1.869a7.988 7.988 0 002.02-2.93c.435-1.104.653-2.507.653-4.208zm49.695 32.502h-29.799v-45.23h29.8v5.347h-23.785v12.393h23.784v5.346h-23.784V196.3h23.784v5.346zm42.435-12.91c0 1.762-.41 3.504-1.23 5.225a12.427 12.427 0 01-3.448 4.374c-1.62 1.296-3.508 2.309-5.665 3.038-2.157.729-4.754 1.093-7.791 1.093-3.26 0-6.192-.303-8.794-.91-2.602-.608-5.25-1.51-7.943-2.704v-7.534h.425c2.288 1.904 4.93 3.372 7.928 4.405 2.997 1.033 5.812 1.55 8.445 1.55 3.726 0 6.626-.7 8.702-2.097 2.076-1.397 3.114-3.26 3.114-5.589 0-2.005-.491-3.483-1.473-4.435-.983-.952-2.476-1.69-4.48-2.217a44.674 44.674 0 00-4.937-1.003c-1.772-.263-3.65-.597-5.635-1.002-4.01-.85-6.981-2.304-8.915-4.359-1.934-2.055-2.901-4.734-2.9-8.034 0-3.787 1.599-6.89 4.798-9.31 3.2-2.42 7.26-3.63 12.181-3.63 3.18 0 6.096.303 8.748.91 2.653.608 5.002 1.358 7.048 2.249v7.107h-.426c-1.721-1.458-3.984-2.667-6.789-3.63a26.372 26.372 0 00-8.611-1.442c-3.22 0-5.807.668-7.761 2.005-1.954 1.336-2.932 3.057-2.932 5.163 0 1.884.486 3.362 1.459 4.435.972 1.074 2.683 1.894 5.133 2.46 1.296.284 3.139.629 5.528 1.034 2.39.405 4.415.82 6.076 1.245 3.361.891 5.893 2.238 7.594 4.04 1.7 1.802 2.551 4.323 2.551 7.564zm39.458 12.91h-29.798v-45.23h29.798v5.347h-23.784v12.393h23.784v5.346h-23.784V196.3h23.784v5.346zm46.992 0h-7.807l-15.127-17.982h-8.475v17.982h-6.014v-45.23h12.667c2.733 0 5.012.178 6.834.532 1.823.355 3.463.987 4.921 1.899 1.64 1.032 2.921 2.334 3.843 3.903.92 1.57 1.382 3.559 1.382 5.969 0 3.26-.82 5.989-2.46 8.186-1.641 2.197-3.9 3.853-6.775 4.967l17.01 19.774zm-14.064-32.502c0-1.296-.228-2.445-.684-3.448-.455-1.002-1.21-1.847-2.263-2.536-.87-.587-1.903-.997-3.098-1.23-1.195-.233-2.602-.35-4.222-.35h-7.078v17.072h6.075c1.904 0 3.564-.167 4.982-.501 1.418-.335 2.622-.957 3.615-1.869a7.988 7.988 0 002.02-2.93c.435-1.104.653-2.507.653-4.208zm55.557-12.727l-16.463 45.23h-8.02l-16.463-45.23h6.44l14.185 39.792 14.185-39.792h6.136zm36.664 45.23H791.82v-45.23h29.799v5.346h-23.784v12.393h23.784v5.346h-23.784V196.3h23.784v5.346zm47.781-22.57c0 4.11-.896 7.837-2.688 11.178-1.792 3.342-4.177 5.934-7.154 7.777-2.065 1.275-4.369 2.197-6.91 2.764-2.542.567-5.888.85-10.04.85h-11.42v-45.23h11.3c4.414 0 7.922.32 10.524.957 2.603.638 4.805 1.514 6.607 2.628a20.197 20.197 0 017.2 7.685c1.72 3.2 2.581 6.997 2.581 11.391zm-6.288-.091c0-3.544-.617-6.53-1.853-8.961-1.235-2.43-3.078-4.344-5.528-5.741a18.77 18.77 0 00-5.68-2.111c-2.005-.395-4.405-.592-7.2-.593h-5.65v34.902h5.65c2.896 0 5.423-.212 7.58-.638a17.006 17.006 0 005.938-2.369c2.248-1.438 3.934-3.331 5.057-5.68 1.124-2.35 1.686-5.286 1.686-8.81z" transform="matrix(.80374 0 0 1.24419 -2.903 6.773)" id="text6307" font-size="14.93" font-style="normal" font-weight="400" fill="#000" font-family="Verdana"/>
    </g>
</svg>
