<svg xmlns="http://www.w3.org/2000/svg" viewBox="0 0 935.45 243.64">
    <defs>
        <style>
            .a{fill:#69b93b}.b{fill:#da2e29}
        </style>
    </defs>
    <path class="a" d="M312.56 89.31a23.17 23.17 0 01-1.56 8.56 19.77 19.77 0 01-11.18 11.32 24.53 24.53 0 01-17.63 0 20.4 20.4 0 01-6.82-4.51 19.93 19.93 0 01-4.37-6.81 24.33 24.33 0 010-17.1 20 20 0 014.39-6.8 20.4 20.4 0 016.82-4.51 24.53 24.53 0 0117.63 0A19.85 19.85 0 01311 80.8a23 23 0 011.56 8.51zm-8.9 0a18.8 18.8 0 00-.87-5.93 12.56 12.56 0 00-2.51-4.47 10.8 10.8 0 00-4-2.81 14.94 14.94 0 00-10.6 0 10.78 10.78 0 00-4 2.81 12.56 12.56 0 00-2.51 4.47 20.74 20.74 0 000 11.89 12.43 12.43 0 002.51 4.45 10.84 10.84 0 004 2.8 14.94 14.94 0 0010.6 0 10.87 10.87 0 004-2.8 12.43 12.43 0 002.51-4.45 18.89 18.89 0 00.87-5.96z"/>
    <path class="a" d="M336.8 95.89v14.47h-8.7V68.29h14.21a24.47 24.47 0 017.47 1 14.23 14.23 0 015.22 2.84 11.11 11.11 0 013 4.31 14.82 14.82 0 011 5.42 15.4 15.4 0 01-1 5.68 11.62 11.62 0 01-3.16 4.46 14.3 14.3 0 01-5.19 2.88 23.54 23.54 0 01-7.34 1h-5.51zm0-6.67h5.51q4.09 0 6-2a7.45 7.45 0 001.9-5.39 8.15 8.15 0 00-.48-2.86 5.69 5.69 0 00-1.45-2.2 6.51 6.51 0 00-2.45-1.41 11.13 11.13 0 00-3.51-.49h-5.52v14.35z"/>
    <path class="a" d="M400.43 68.29v6.81h-18v10.82h14v6.58h-14v11h18v6.82h-26.8V68.29h26.8z"/>
    <path class="a" d="M421.61 68.33a2.07 2.07 0 01.71.2 2.75 2.75 0 01.61.42 5.86 5.86 0 01.64.7l21.11 26.83q-.12-1.1-.17-2.15t-.06-2V68.29h7.69v42.08h-4.5a3.94 3.94 0 01-1.71-.33 4.13 4.13 0 01-1.36-1.14l-21-26.65q.09 1 .13 2t0 1.81v24.33h-7.68v-42.1h4.58a8.61 8.61 0 011.01.04z"/>
    <path class="a" d="M501.75 85.66h1.71a3.55 3.55 0 003.1-1.33l10.64-14.24a4.19 4.19 0 011.65-1.41 5.52 5.52 0 012.2-.39h7.54l-13.4 17.25a8.51 8.51 0 01-2.7 2.41 7.1 7.1 0 011.85 1.05 8.37 8.37 0 011.57 1.73l13.75 19.63h-7.74a6.13 6.13 0 01-1.29-.12 4 4 0 01-.94-.32 2.48 2.48 0 01-.7-.51 4.71 4.71 0 01-.55-.71l-10.83-15.13a3.17 3.17 0 00-1.3-1.12 5.38 5.38 0 00-2.12-.33h-2.44v18.24h-8.7V68.29h8.7v17.37z"/>
    <path class="a" d="M548.05 68.33a2.07 2.07 0 01.71.2 2.75 2.75 0 01.61.42 5.86 5.86 0 01.64.7l21.11 26.83q-.12-1.1-.17-2.15t-.06-2V68.29h7.69v42.08h-4.5a3.94 3.94 0 01-1.71-.33 4.13 4.13 0 01-1.36-1.14L550 82.23q.09 1 .13 2t0 1.81v24.33h-7.68V68.29h4.58a8.61 8.61 0 011.02.04z"/>
    <path class="a" d="M637.21 89.31a23.17 23.17 0 01-1.55 8.55 19.77 19.77 0 01-11.18 11.32 24.53 24.53 0 01-17.63 0 20.4 20.4 0 01-6.82-4.51 19.93 19.93 0 01-4.39-6.82 24.33 24.33 0 010-17.1A20 20 0 01600 74a20.4 20.4 0 016.82-4.51 24.53 24.53 0 0117.63 0 19.85 19.85 0 0111.21 11.31 23 23 0 011.55 8.51zm-8.9 0a18.8 18.8 0 00-.87-5.93 12.56 12.56 0 00-2.51-4.47 10.8 10.8 0 00-4-2.81 14.94 14.94 0 00-10.6 0 10.78 10.78 0 00-4 2.81 12.56 12.56 0 00-2.51 4.47 20.74 20.74 0 000 11.89 12.43 12.43 0 002.51 4.45 10.84 10.84 0 004 2.8 14.94 14.94 0 0010.6 0 10.87 10.87 0 004-2.8 12.43 12.43 0 002.51-4.45 18.89 18.89 0 00.87-5.96z"/>
    <path class="a" d="M647.68 68.29H655a3.3 3.3 0 011.9.52 2.38 2.38 0 011 1.39l6.52 23.72q.23 1 .48 2.15t.48 2.41q.26-1.28.55-2.42t.64-2.13l7.6-23.72a2.76 2.76 0 011-1.32 3 3 0 011.87-.59h2.55a3 3 0 011.84.54 3.26 3.26 0 011.06 1.38l7.57 23.72q.32.93.62 2t.54 2.32q.23-1.22.46-2.32t.46-2l6.52-23.72a2.47 2.47 0 011-1.33 3.08 3.08 0 011.88-.58h6.84l-13 42.08h-7.86l-8.61-27.52a11.49 11.49 0 01-.42-1.28q-.19-.7-.36-1.45l-.39 1.45q-.19.7-.39 1.28l-8.7 27.52h-7.95z"/>
    <path class="a" d="M731 103.29h16.27v7.08h-25V68.29H731v35z"/>
    <path class="a" d="M788.5 68.29v6.81h-18v10.82h14v6.58h-14v11h18v6.82h-26.8V68.29h26.8z"/>
    <path class="a" d="M841.89 89.31a22.63 22.63 0 01-1.55 8.48 19.29 19.29 0 01-4.38 6.66 20 20 0 01-6.8 4.35 23.86 23.86 0 01-8.82 1.57h-16.18V68.29h16.18a23.86 23.86 0 018.82 1.57 19.92 19.92 0 016.8 4.36 19.47 19.47 0 014.38 6.66 22.43 22.43 0 011.55 8.43zm-8.93 0a18.94 18.94 0 00-.87-5.95 12.53 12.53 0 00-2.49-4.47 10.9 10.9 0 00-4-2.81 13.51 13.51 0 00-5.29-1h-7.42v28.45h7.42a13.67 13.67 0 005.29-1 10.66 10.66 0 004-2.81 12.67 12.67 0 002.49-4.48 19 19 0 00.91-5.93z"/>
    <path class="a" d="M885.52 109.74a26.77 26.77 0 01-7.7 1.09 26.1 26.1 0 01-9.4-1.61 21.14 21.14 0 01-7.19-4.48 19.77 19.77 0 01-4.61-6.82 22.39 22.39 0 01-1.62-8.61 23.49 23.49 0 011.55-8.67 19.42 19.42 0 014.45-6.79 20.21 20.21 0 016.95-4.44 24.86 24.86 0 019.05-1.59 26.68 26.68 0 014.87.42 23.56 23.56 0 014.18 1.16 19.73 19.73 0 016.41 4L890 77.28a2.34 2.34 0 01-1.51 1.13 2.76 2.76 0 01-2-.46q-1-.64-2-1.15a15.78 15.78 0 00-2.13-.88 15 15 0 00-2.46-.58 20.72 20.72 0 00-3.07-.2 13.38 13.38 0 00-5.31 1 11.35 11.35 0 00-4 2.87 12.83 12.83 0 00-2.57 4.47 17.81 17.81 0 00-.9 5.83 18.3 18.3 0 001 6.22 12.94 12.94 0 002.78 4.63A11.86 11.86 0 00872 103a16.45 16.45 0 009.31.57 18.65 18.65 0 003.2-1.15v-7.05h-4.76a1.85 1.85 0 01-1.32-.45 1.5 1.5 0 01-.48-1.15v-4.84h14.44v17.37a22.55 22.55 0 01-6.87 3.44z"/>
    <path class="a" d="M935.45 68.29v6.81h-18v10.82h14v6.58h-14v11h18v6.82h-26.8V68.29h26.8z"/>
    <path class="a" d="M278.6 178.57h-5.33v-39.4h5.33v39.41z"/>
    <path class="a" d="M301.66 139.34a2.75 2.75 0 01.78.73l22.82 29.7q-.08-.71-.11-1.39t0-1.31v-27.9h4.67v39.41h-2.7a2.29 2.29 0 01-1.06-.22 2.67 2.67 0 01-.84-.74l-22.8-29.67q.06.69.08 1.35t0 1.21v28.08h-4.67v-39.42h2.75a2.39 2.39 0 011.08.17z"/>
    <path class="a" d="M375 139.17v4.48h-12.77v34.92h-5.33v-34.92h-12.79v-4.48H375z"/>
    <path class="a" d="M413.55 139.17v4.34h-18.92v13.09h15.32v4.18h-15.32v13.45h18.92v4.34h-24.29v-39.4h24.28z"/>
    <path class="a" d="M435.77 162.13v16.45h-5.31v-39.41h11.14a24.34 24.34 0 016.46.76 12.35 12.35 0 014.5 2.19 8.76 8.76 0 012.63 3.45 11.53 11.53 0 01.85 4.52 11.33 11.33 0 01-.66 3.91 10.33 10.33 0 01-1.91 3.26 11.44 11.44 0 01-3.05 2.46 15.08 15.08 0 01-4.08 1.54 5.64 5.64 0 011.76 1.68l11.49 15.65h-4.73a2.33 2.33 0 01-2.15-1.13l-10.23-14.08a3 3 0 00-1-.95 3.67 3.67 0 00-1.65-.29h-4zm0-3.88h5.58a13.59 13.59 0 004.11-.56 8.36 8.36 0 003-1.59 6.62 6.62 0 001.8-2.46 8 8 0 00.61-3.16 6.28 6.28 0 00-2.32-5.31q-2.32-1.79-6.92-1.79h-5.83v14.88z"/>
    <path class="a" d="M477.83 139.34a2.75 2.75 0 01.78.73l22.82 29.7q-.08-.71-.11-1.39t0-1.31v-27.9H506v39.41h-2.7a2.29 2.29 0 01-1.06-.22 2.67 2.67 0 01-.84-.74l-22.8-29.67q.06.69.08 1.35t0 1.21v28.08H474v-39.42h2.75a2.39 2.39 0 011.08.17z"/>
    <path class="a" d="M556.71 178.57h-4.12a1.77 1.77 0 01-1.15-.36 2.19 2.19 0 01-.66-.91l-3.69-9.52H529.4l-3.69 9.52a2.15 2.15 0 01-.66.88 1.75 1.75 0 01-1.15.38h-4.12l15.76-39.41H541zm-25.82-14.63h14.71l-6.19-16a29.93 29.93 0 01-1.18-3.71q-.3 1.13-.59 2.08t-.56 1.66z"/>
    <path class="a" d="M593.59 139.17v4.48h-12.73v34.92h-5.33v-34.92h-12.8v-4.48h30.86z"/>
    <path class="a" d="M614.21 178.57h-5.33v-39.4h5.33v39.41z"/>
    <path class="a" d="M670.06 158.88a22.76 22.76 0 01-1.4 8.13 18.62 18.62 0 01-4 6.37 17.69 17.69 0 01-6.15 4.14 22.1 22.1 0 01-15.85 0 17.72 17.72 0 01-6.13-4.14 18.6 18.6 0 01-4-6.37 24.25 24.25 0 010-16.25 18.75 18.75 0 014-6.38 17.8 17.8 0 016.13-4.17 21.89 21.89 0 0115.85 0 17.77 17.77 0 016.15 4.17 18.76 18.76 0 014 6.38 22.76 22.76 0 011.4 8.12zm-5.47 0a20 20 0 00-1-6.52 13.78 13.78 0 00-2.8-4.88 12.17 12.17 0 00-4.4-3.07 16 16 0 00-11.52 0 12.29 12.29 0 00-4.41 3.07 13.66 13.66 0 00-2.82 4.88 21.9 21.9 0 000 13 13.69 13.69 0 002.82 4.87 12.14 12.14 0 004.41 3.05 16.19 16.19 0 0011.52 0 12 12 0 004.4-3.05 13.81 13.81 0 002.8-4.87 19.89 19.89 0 001-6.48z"/>
    <path class="a" d="M689.85 139.34a2.75 2.75 0 01.78.73l22.82 29.7q-.08-.71-.11-1.39t0-1.31v-27.9H718v39.41h-2.7a2.29 2.29 0 01-1.06-.22 2.67 2.67 0 01-.84-.74l-22.8-29.67q.06.69.08 1.35t0 1.21v28.08H686v-39.42h2.75a2.39 2.39 0 011.1.17z"/>
    <path class="a" d="M768.73 178.57h-4.12a1.77 1.77 0 01-1.15-.36 2.19 2.19 0 01-.66-.91l-3.69-9.52h-17.68l-3.69 9.52a2.15 2.15 0 01-.66.88 1.75 1.75 0 01-1.15.38h-4.13l15.76-39.41H753zm-25.82-14.63h14.71l-6.19-16a29.93 29.93 0 01-1.18-3.71q-.3 1.13-.59 2.08t-.56 1.66z"/>
    <path class="a" d="M787.74 174.09h17v4.48H782.4v-39.4h5.33v34.92z"/>
    <path class="a" d="M175.61 58.448l38.696-51.802 6.257 4.674-38.697 51.802z"/>
    <path class="a" d="M163.113 51.58l13.885-27.884 6.991 3.481-13.884 27.884z"/>
    <path class="a" d="M149.737 47.102L163.448.092l7.498 2.186-13.712 47.011z"/>
    <path class="a" d="M135.43 44.971l3.206-30.974 7.769.804-3.207 30.975z"/>
    <path class="a" d="M118.5 10.699l7.787-.596 2.665 34.788-7.788.596z"/>
    <path class="a" d="M101.176 25.41l7.555-1.977 6.048 23.101-7.556 1.978z"/>
    <path class="a" d="M87.283 39.494l7.08-3.296 6.756 14.515-7.08 3.296z"/>
    <path class="a" d="M78.413 56.637l6.38-4.504 3.622 5.13-6.38 4.504z"/>
    <path class="a" d="M53.304 53.548l5.472-5.573L77.09 65.961l-5.472 5.573z"/>
    <path class="a" d="M63.12 83L34.77 63.56l4.39-6.46 28.35 19.44L63.12 83z"/>
    <path class="a" d="M38.951 87.887l3.165-7.14 17.846 7.908-3.164 7.14z"/>
    <path class="a" d="M.003 96.727l1.84-7.59 52.87 12.81-1.84 7.59z"/>
    <path class="a" d="M12.002 121.444l.454-7.796 39.443 2.295-.453 7.796z"/>
    <path class="a" d="M13.413 134.888l38.228-4.654.943 7.753-38.227 4.653z"/>
    <path class="a" d="M45.401 146.967l8.548-2.652 2.315 7.459-8.548 2.652z"/>
    <path class="a" d="M29.986 172.747l28.734-14.97 3.609 6.926-28.734 14.97z"/>
    <path class="a" d="M38.229 191.57l27.596-21.414 4.788 6.17-27.596 21.414z"/>
    <path class="a" d="M52.3 206.417l22.736-25.348 5.814 5.215-22.735 25.348z"/>
    <path class="a" d="M77.787 203.593l8.242-13.386 6.65 4.095-8.241 13.386z"/>
    <path class="a" d="M87.354 225.679l11.136-28.502 7.274 2.842L94.63 228.52z"/>
    <path class="a" d="M106.603 229.379l5.377-27.56 7.666 1.495-5.377 27.56z"/>
    <path class="a" d="M125.835 223.542l.263-19.528 7.809.105-.263 19.528z"/>
    <path class="a" d="M140.383 203.622l7.703-1.293 6.253 37.249-7.702 1.293z"/>
    <path class="a" d="M154.36 200.688l7.348-2.647 7.734 21.47-7.348 2.647z"/>
    <path class="a" d="M167.58 195.32l28.33 48.32 6.76-3.92-28.33-48.32-6.76 3.92z"/>
    <path class="a" d="M184.11 192.27l-4.32-4.43 5.65-5.4 4.31 4.43-5.64 5.4z"/>
    <path class="a" d="M190.133 177.997l4.95-6.041 19.477 15.958-4.95 6.041z"/>
    <path class="a" d="M198.734 166.579l3.79-6.829 19.89 11.044-3.79 6.828z"/>
    <path class="a" d="M205.156 153.814l2.51-7.395 9.612 3.262-2.51 7.396z"/>
    <path class="a" d="M209.196 140.13l1.15-7.724 30.099 4.482-1.15 7.725z"/>
    <path class="a" d="M210.415 118.531l19.33-.58.234 7.81-19.33.58z"/>
    <path class="a" d="M208.083 104.044l23.888-5.117 1.636 7.637-23.889 5.116z"/>
    <path class="a" d="M203.191 90.624l15.404-6.346 2.975 7.221-15.404 6.346z"/>
    <path class="a" d="M195.982 78.321l40.79-26.146 4.214 6.575-40.79 26.147z"/>
    <path class="a" d="M186.69 67.461l6.163-5.738 5.322 5.716-6.162 5.738z"/>
    <path class="b" d="M159.91 88.99l-3-2.51 2.05-2.43 3 2.51-1.45 1.73-.6.7z"/>
    <path class="b" d="M145.935 90.456l5.291-10.636 3.492 1.737-5.292 10.636z"/>
    <path class="b" d="M141.014 83.548l1.91-6.589 3.746 1.086-1.91 6.589z"/>
    <path class="b" d="M133.014 87.35l1.21-11.748 3.889.4-1.21 11.749z"/>
    <path class="b" d="M125.441 75.838l3.899-.299.832 10.868-3.898.299z"/>
    <path class="b" d="M116.836 77.647l3.783-.99 3.497 13.36-3.782.99z"/>
    <path class="b" d="M108.678 80.955l3.546-1.65 6.778 14.57-3.545 1.65z"/>
    <path class="b" d="M113.16 102.67l-11.91-17.02 3.19-2.26 11.91 17.03-3.19 2.25z"/>
    <path class="b" d="M94.789 91.6l2.74-2.79 9.581 9.41-2.74 2.79z"/>
    <path class="b" d="M89.485 98.598l2.192-3.226 9.893 6.721-2.192 3.226z"/>
    <path class="b" d="M85.528 106.475l1.585-3.574 14.097 6.25-1.585 3.574z"/>
    <path class="b" d="M83.014 114.899l.92-3.8 5.385 1.304-.92 3.8z"/>
    <path class="b" d="M82.072 123.634l.226-3.893 9.743.565-.226 3.894z"/>
    <path class="b" d="M82.212 128.537l9.996-1.218.473 3.88-9.996 1.22z"/>
    <path class="b" d="M84.88 140.93l-1.16-3.72 18.94-5.81 1.15 3.73-18.93 5.8z"/>
    <path class="b" d="M86.75 145.462l10.372-5.413 1.81 3.466-10.373 5.413z"/>
    <path class="b" d="M91.177 153.05l8.757-6.788 2.395 3.09-8.757 6.789z"/>
    <path class="b" d="M96.9 159.742l7.649-8.52 2.902 2.604-7.648 8.521z"/>
    <path class="b" d="M103.733 165.26l8.41-13.67 3.33 2.048-8.41 13.67z"/>
    <path class="b" d="M111.455 169.493l4.394-11.263 3.643 1.42-4.394 11.264z"/>
    <path class="b" d="M119.336 172.153l2.506-12.926 3.831.743-2.506 12.926z"/>
    <path class="b" d="M128.505 173.555l.204-15.399 3.91.052-.204 15.399z"/>
    <path class="b" d="M135.62 163.264l3.847-.645 1.668 9.951-3.846.645z"/>
    <path class="b" d="M140.838 157.389l3.678-1.327 5.037 13.96-3.678 1.326z"/>
    <path class="b" d="M152.133 164.77l3.384-1.96 1.849 3.194-3.384 1.959z"/>
    <path class="b" d="M161.37 163.17l-13.96-16.35 2.98-2.53 13.95 16.35-2.97 2.53z"/>
    <path class="b" d="M157.373 148.607l2.471-3.017 10.404 8.525-2.472 3.016z"/>
    <path class="b" d="M160.62 143.186l1.9-3.418 12.387 6.88-1.899 3.418z"/>
    <path class="b" d="M176.89 142.19l-17.44-6 1.26-3.7 17.44 6-1.26 3.7z"/>
    <path class="b" d="M167.5 131.985l.579-3.867 11.799 1.763-.578 3.867z"/>
    <path class="b" d="M164.85 121.581l15.172-.482.124 3.898-15.172.482z"/>
    <path class="b" d="M165.11 115.297l13.523-2.899.82 3.823-13.523 2.9z"/>
    <path class="b" d="M161.072 110.135l14.63-6.018 1.484 3.606-14.63 6.019z"/>
    <path class="b" d="M165.533 100.196l5.793-3.712 2.11 3.292-5.793 3.712z"/>
    <path class="b" d="M152.073 102.38l13.585-12.647 2.664 2.862-13.585 12.646z"/>
</svg>
