<svg version="1.1" id="Layer_1" xmlns="http://www.w3.org/2000/svg" xmlns:xlink="http://www.w3.org/1999/xlink" x="0px" y="0px"
	 width="100%" viewBox="0 0 639 411" enable-background="new 0 0 639 411" xml:space="preserve">
<path fill="#FCFDFE" opacity="1.000000" stroke="none" 
	d="
M640.000000,146.000000 
	C640.000000,234.978928 640.000000,323.457855 640.000000,411.968384 
	C427.071777,411.968384 214.143555,411.968384 1.107663,411.968384 
	C1.107663,275.104462 1.107663,138.208817 1.107663,1.156585 
	C213.999908,1.156585 426.999939,1.156585 640.000000,1.156585 
	C640.000000,49.189728 640.000000,97.344864 640.000000,146.000000 
M419.967407,88.841286 
	C419.922546,91.495499 419.877655,94.149719 419.235199,96.577515 
	C416.507416,94.470779 413.819244,92.310165 411.043915,90.268044 
	C404.395447,85.376030 404.378906,85.398521 398.302338,89.865585 
	C398.237152,81.026070 398.171997,72.186562 398.530304,62.892574 
	C401.424774,60.727448 399.713287,58.903408 398.236420,56.133846 
	C398.236420,43.054100 398.236420,29.974354 398.236420,16.981815 
	C397.238281,16.697659 396.772369,16.449572 396.306061,16.448870 
	C375.524353,16.417593 354.742462,16.379398 333.961121,16.464781 
	C332.666565,16.470098 331.376068,17.465284 329.369293,17.639492 
	C328.355835,17.749100 327.003174,17.477510 326.383118,18.029224 
	C321.826965,22.083292 317.417328,26.302017 312.162933,31.215664 
	C317.440521,36.150108 321.822388,40.397198 326.426300,44.388157 
	C327.108734,44.979744 328.839264,44.362240 330.235321,45.319565 
	C330.181763,55.571613 330.128235,65.823662 329.439453,75.781021 
	C328.697052,75.613670 327.553558,75.051468 327.271881,75.337639 
	C322.352783,80.334961 317.539246,85.436241 313.113678,90.083374 
	C318.642242,90.083374 324.442291,90.083374 330.268311,90.946159 
	C330.265289,92.964996 330.262299,94.983826 329.349335,97.189323 
	C322.266174,97.767906 315.183044,98.346489 308.073059,97.998772 
	C308.007599,87.493347 307.942108,76.987930 308.100494,66.155930 
	C308.068237,65.744553 308.035980,65.333168 308.070312,64.067360 
	C308.060913,61.793362 308.051514,59.519367 308.660217,57.067928 
	C308.412354,56.023792 308.164490,54.979660 308.035004,53.012524 
	C308.035004,40.940224 308.035004,28.867924 308.035004,16.663395 
	C300.382172,16.663395 293.305786,16.663395 285.592621,16.663395 
	C285.592621,21.864454 285.592621,26.805422 285.106262,31.408018 
	C283.828979,32.253445 282.387451,32.928097 281.301544,33.972515 
	C275.098175,39.938911 268.979401,45.993317 262.714386,51.084244 
	C262.702057,40.935589 262.794525,30.784496 262.558441,20.641048 
	C262.525085,19.207745 260.954224,16.640680 259.985565,16.587397 
	C253.413025,16.225866 246.811096,16.398451 240.093857,16.398451 
	C240.093857,36.362282 240.093857,55.651085 239.682495,75.476151 
	C232.500549,82.541145 225.318619,89.606148 218.023651,95.781448 
	C218.023651,69.486183 218.023651,43.190918 218.023651,16.711342 
	C195.144821,16.711342 172.746460,16.711342 149.873642,16.711342 
	C149.873642,18.758017 149.873657,20.554480 149.873657,22.350945 
	C149.873642,63.842793 149.858292,105.334648 149.881470,146.826492 
	C149.890213,162.487396 149.988007,178.148270 149.689758,194.395187 
	C145.870270,197.795517 142.050781,201.195847 138.202011,204.622238 
	C142.769638,209.431442 146.407562,213.261780 149.927872,218.011581 
	C149.927872,276.750702 149.927872,335.489838 149.927872,394.250580 
	C172.904205,394.250580 195.194794,394.250580 218.132904,394.250580 
	C218.132904,367.455994 218.132904,340.840363 218.711975,314.472748 
	C225.845032,321.663940 232.978073,328.855103 240.007660,336.972717 
	C240.007660,356.062317 240.007660,375.151947 240.007660,394.632202 
	C246.390060,394.632202 252.202774,394.416992 257.989990,394.708527 
	C261.791168,394.899994 262.821655,393.563019 262.759064,389.868439 
	C262.584259,379.548035 262.797913,369.221039 263.477936,359.204041 
	C269.568604,365.270386 275.617218,371.380188 281.793518,377.358093 
	C282.764435,378.297791 284.314117,378.639526 285.641052,380.152039 
	C285.641052,384.779144 285.641052,389.406281 285.641052,394.298218 
	C293.361328,394.298218 300.572052,394.298218 307.918243,394.298218 
	C307.918243,381.670105 307.918243,369.371216 308.212494,356.488647 
	C308.816315,355.509033 311.330353,354.404480 308.048889,352.844330 
	C308.036407,350.591736 308.023926,348.339142 308.337006,345.825531 
	C308.183929,345.361206 308.030853,344.896881 308.043854,343.453125 
	C308.062714,332.989777 308.081573,322.526428 308.936218,311.997620 
	C316.048340,312.632538 323.160431,313.267456 330.273926,314.774597 
	C330.276703,316.794678 330.279449,318.814728 329.322723,320.971649 
	C323.715149,320.971649 318.107544,320.971649 312.165771,320.971649 
	C316.763092,325.510345 321.248260,330.113647 325.982941,334.444183 
	C326.795258,335.187134 328.671082,334.767334 330.232880,335.822662 
	C330.179077,346.095215 330.125305,356.367798 329.482056,366.272125 
	C328.626221,366.163177 327.398041,365.632904 326.971619,366.009827 
	C322.165497,370.257538 317.482422,374.644470 312.129517,379.581421 
	C317.412354,384.570740 321.545532,388.665436 325.938171,392.459808 
	C326.806641,393.209991 328.672760,392.805176 330.448120,393.616516 
	C332.170227,393.952362 333.891296,394.573853 335.614624,394.580200 
	C354.530365,394.650055 373.446442,394.624054 392.362427,394.624054 
	C394.146729,394.624054 395.931030,394.624023 397.762939,394.624023 
	C398.009338,393.504700 398.267883,392.880615 398.266052,392.257324 
	C398.228638,379.484344 398.161530,366.711487 398.437653,353.348938 
	C399.145782,352.475433 399.853912,351.601929 400.620514,350.656281 
	C399.716919,349.551331 398.895935,348.547455 398.253723,346.551300 
	C398.293030,337.766113 398.332367,328.980957 398.865540,320.560883 
	C404.051178,325.472717 404.066803,325.494476 409.899628,321.305603 
	C413.240601,318.906281 416.520905,316.422455 419.935883,314.873901 
	C419.972504,317.581573 420.009155,320.289276 419.665161,323.553955 
	C416.430573,325.994843 413.195984,328.435730 410.831818,330.219788 
	C412.213837,332.401154 413.498260,334.428436 414.806244,336.492889 
	C416.861542,334.751770 418.346436,333.493866 419.940155,333.137726 
	C419.940155,353.533173 419.940155,373.928650 419.940155,394.376923 
	C428.324463,394.376923 435.926025,394.376923 444.164673,394.376923 
	C444.164673,375.035706 444.164673,355.930695 444.769592,337.114563 
	C449.172485,341.760590 453.575378,346.406616 458.130249,351.212982 
	C460.908600,348.730652 463.093750,346.778320 465.392059,345.779694 
	C465.401947,360.272339 465.607574,374.769043 465.306885,389.255249 
	C465.211945,393.828522 466.690948,394.770752 470.968933,394.717041 
	C489.290314,394.486908 507.616241,394.618958 525.940491,394.618988 
	C528.230652,394.618988 530.520813,394.618988 533.120972,394.618988 
	C533.120972,268.384521 533.120972,142.708618 533.120972,16.872473 
	C532.140198,16.695377 531.349731,16.428936 530.559082,16.427967 
	C510.069244,16.402834 489.579010,16.468204 469.089966,16.340702 
	C465.701447,16.319614 465.372925,17.916908 465.382416,20.635704 
	C465.435486,35.793777 465.364349,50.952282 464.718323,65.744217 
	C462.695648,63.829067 460.672943,61.913918 457.563354,58.969650 
	C452.992462,64.069206 448.575531,68.997040 444.022461,73.005928 
	C444.022461,54.285782 444.022461,35.565636 444.022461,16.691242 
	C435.754456,16.691242 428.029358,16.691242 419.830994,16.691242 
	C419.830994,37.555805 419.830994,58.133919 419.267120,78.441917 
	C417.857239,77.182060 416.447388,75.922203 415.502716,75.078049 
	C413.390900,76.958374 411.738037,78.430077 410.010223,79.968513 
	C413.443634,82.699547 416.742615,85.323662 419.967407,88.841286 
M128.147812,233.500015 
	C128.147812,161.252396 128.147812,89.004784 128.147812,16.607128 
	C105.127831,16.607128 82.730293,16.607128 60.268394,16.607128 
	C60.268394,142.634399 60.268394,268.360748 60.268394,394.135681 
	C82.930611,394.135681 105.328751,394.135681 128.147827,394.135681 
	C128.147827,340.728699 128.147827,287.614349 128.147812,233.500015 
M557.998230,53.500000 
	C557.998230,167.064285 557.998230,280.628571 557.998230,394.624451 
	C563.835388,394.624451 569.159180,394.309784 574.427368,394.716339 
	C579.323853,395.094177 580.915344,393.821320 580.907776,388.503601 
	C580.734863,266.549469 580.774475,144.595047 580.774231,22.640669 
	C580.774231,21.474443 581.118652,20.148472 580.676331,19.184277 
	C580.174561,18.090546 578.992981,16.563704 578.061707,16.531515 
	C571.458801,16.303284 564.844360,16.410048 557.998230,16.410048 
	C557.998230,28.860407 557.998230,40.680202 557.998230,53.500000 
M14.786083,47.499947 
	C14.786083,163.076721 14.786083,278.653473 14.786083,394.079712 
	C22.665585,394.079712 29.744326,394.079712 36.736149,394.079712 
	C36.736149,268.022919 36.736149,142.316284 36.736149,16.681313 
	C29.253839,16.681313 22.189510,16.681313 14.786037,16.681313 
	C14.786037,26.868013 14.786037,36.683979 14.786083,47.499947 
M626.137390,367.500000 
	C626.137390,250.614624 626.137390,133.729233 626.137390,16.695225 
	C618.487915,16.695225 611.402405,16.695225 604.152222,16.695225 
	C604.152222,142.730270 604.152222,268.528717 604.152222,394.233032 
	C611.617432,394.233032 618.692261,394.233032 626.137451,394.233032 
	C626.137451,385.437012 626.137451,376.968506 626.137390,367.500000 
z"/>
<path fill="#0045A5" opacity="1.000000" stroke="none" 
	d="
M128.147827,234.000031 
	C128.147827,287.614349 128.147827,340.728699 128.147827,394.135681 
	C105.328751,394.135681 82.930611,394.135681 60.268394,394.135681 
	C60.268394,268.360748 60.268394,142.634399 60.268394,16.607128 
	C82.730293,16.607128 105.127831,16.607128 128.147812,16.607128 
	C128.147812,89.004784 128.147812,161.252396 128.147827,234.000031 
z"/>
<path fill="#0347A5" opacity="1.000000" stroke="none" 
	d="
M465.335663,66.110641 
	C465.364349,50.952282 465.435486,35.793777 465.382416,20.635704 
	C465.372925,17.916908 465.701447,16.319614 469.089966,16.340702 
	C489.579010,16.468204 510.069244,16.402834 530.559082,16.427967 
	C531.349731,16.428936 532.140198,16.695377 533.120972,16.872473 
	C533.120972,142.708618 533.120972,268.384521 533.120972,394.618988 
	C530.520813,394.618988 528.230652,394.618988 525.940491,394.618988 
	C507.616241,394.618958 489.290314,394.486908 470.968933,394.717041 
	C466.690948,394.770752 465.211945,393.828522 465.306885,389.255249 
	C465.607574,374.769043 465.401947,360.272339 465.519348,345.060913 
	C468.191895,341.626221 470.737213,338.910370 473.382294,336.088104 
	C470.473236,332.985199 467.795990,330.129578 465.237915,326.795166 
	C465.378448,307.897583 465.399841,289.478821 465.662415,271.255951 
	C468.308319,273.677521 470.712982,275.903229 472.257965,277.333221 
	C482.177032,267.420258 491.846039,257.757202 500.524994,249.083633 
	C492.788452,241.297180 484.569397,233.025116 477.482605,225.892609 
	C473.738861,237.791916 469.600891,250.944138 465.454559,263.621704 
	C465.340973,256.670044 465.235748,250.193024 465.174561,243.435669 
	C466.280548,237.389160 467.342499,231.622971 468.548157,225.076813 
	C466.997131,226.010742 466.201080,226.490067 465.411377,226.440155 
	C465.422424,211.914505 465.427124,197.918106 465.790009,184.181305 
	C469.196045,186.111771 468.097748,183.425629 467.947754,182.504730 
	C467.113129,177.380890 466.092072,172.287445 465.240692,166.649323 
	C465.385529,159.687256 465.424438,153.259430 465.585480,147.158646 
	C469.765259,160.474503 473.822937,173.463333 477.544952,185.377792 
	C484.912323,178.012253 493.263123,169.663528 500.770050,162.158432 
	C491.503571,152.904343 481.822357,143.236053 472.084320,133.511047 
	C470.222870,135.281097 467.830048,137.556412 465.427734,139.374603 
	C465.304871,120.433868 465.191528,101.950272 465.309204,83.265739 
	C468.129791,80.243935 470.719299,77.423065 473.263580,74.651512 
	C470.427246,71.595894 467.881439,68.853271 465.335663,66.110641 
M495.663452,197.160080 
	C492.865082,199.866592 490.066711,202.573105 487.940063,204.629929 
	C493.104858,210.075638 497.776886,215.001785 502.433289,219.911453 
	C507.274231,215.080795 512.086914,210.278305 516.768250,205.606873 
	C511.969269,200.765625 507.184357,195.938583 501.271484,189.973602 
	C499.587006,192.179855 497.876343,194.420410 495.663452,197.160080 
z"/>
<path fill="#0246A4" opacity="1.000000" stroke="none" 
	d="
M150.045197,193.809158 
	C149.988007,178.148270 149.890213,162.487396 149.881470,146.826492 
	C149.858292,105.334648 149.873642,63.842793 149.873657,22.350945 
	C149.873657,20.554480 149.873642,18.758017 149.873642,16.711342 
	C172.746460,16.711342 195.144821,16.711342 218.023651,16.711342 
	C218.023651,43.190918 218.023651,69.486183 217.905243,96.537437 
	C210.677170,104.154152 203.567535,111.014870 197.157776,117.200218 
	C199.274048,120.054161 200.724213,122.009819 201.896606,123.590881 
	C207.446060,116.930573 212.632599,110.705833 217.896454,104.975060 
	C218.039047,108.723373 218.104294,111.977730 218.036026,115.538910 
	C214.583954,120.360420 211.265396,124.875099 207.997391,129.321014 
	C211.552567,133.069260 214.858459,136.554688 218.094208,140.501434 
	C218.016235,148.794662 217.993088,156.626556 218.003265,164.458435 
	C218.049423,199.948975 218.104965,235.439514 218.020386,271.246277 
	C214.528824,274.785889 211.174042,278.009308 207.789139,281.261627 
	C211.415512,286.334290 214.791870,291.057220 218.095551,296.254211 
	C217.956100,299.944366 217.889297,303.160461 217.519577,306.212799 
	C212.217117,299.836456 207.217590,293.623901 202.465668,287.719025 
	C200.971024,289.219055 199.152252,291.044373 196.314178,293.892670 
	C203.525116,300.612244 210.829010,307.418488 218.132904,314.224731 
	C218.132904,340.840363 218.132904,367.455994 218.132904,394.250580 
	C195.194794,394.250580 172.904205,394.250580 149.927872,394.250580 
	C149.927872,335.489838 149.927872,276.750702 150.294189,217.667770 
	C151.720108,218.242905 152.779694,219.161850 153.131363,219.466827 
	C158.269379,214.507278 163.037216,209.905060 167.453415,205.642258 
	C162.815247,200.984146 158.045364,196.193741 153.162918,191.290314 
	C152.333969,191.960037 151.189590,192.884598 150.045197,193.809158 
M189.428528,271.804688 
	C191.892105,269.988373 192.097504,268.139221 190.945297,265.065155 
	C187.587524,256.106598 184.711517,246.954163 181.991577,237.775528 
	C180.669327,233.313461 180.116272,228.623474 179.273834,224.336075 
	C170.798737,232.827850 162.527863,241.114975 154.486603,249.172058 
	C163.771027,258.443573 173.365799,268.024963 183.961609,278.606018 
	C185.435684,276.728271 187.169556,274.519592 189.428528,271.804688 
M156.882736,165.535324 
	C164.099380,172.752487 171.316025,179.969650 177.838898,186.493011 
	C182.432678,172.163391 186.991409,158.026199 191.443741,143.855591 
	C191.721497,142.971573 191.505875,141.548111 190.937408,140.849564 
	C188.540878,137.904739 185.923355,135.139771 183.784088,132.752487 
	C173.426254,143.103912 163.819122,152.705093 154.013824,162.504318 
	C154.586395,163.122421 155.472061,164.078552 156.882736,165.535324 
M198.028091,60.535721 
	C192.764648,65.138168 187.501205,69.740616 183.218842,73.485199 
	C188.456207,79.097267 193.025635,83.993591 197.391830,88.672150 
	C202.199677,83.902237 206.990982,79.148750 211.963470,74.215500 
	C207.525894,69.849243 203.034668,65.430214 198.028091,60.535721 
M190.368439,344.148315 
	C192.369446,346.593536 194.370453,349.038757 196.129776,351.188629 
	C201.835464,345.505066 206.608902,340.750153 210.809875,336.565460 
	C206.170074,331.917297 201.403336,327.142029 197.205719,322.936859 
	C192.792007,327.344025 188.037354,332.091614 182.946136,337.175262 
	C185.001282,339.097504 187.432571,341.371552 190.368439,344.148315 
M203.787308,170.287918 
	C206.816208,167.764801 209.845123,165.241684 212.391495,163.120529 
	C206.957275,157.456955 202.642212,152.959763 198.318497,148.453568 
	C192.991196,157.904343 187.304169,179.196960 188.466003,185.698456 
	C193.473755,180.660782 198.380814,175.724411 203.787308,170.287918 
M195.930679,257.466797 
	C196.685226,259.161072 197.439774,260.855316 197.822708,261.715179 
	C202.479126,257.263824 206.988220,252.953262 209.524643,250.528549 
	C201.930099,242.909363 194.164719,235.118774 187.141510,228.072754 
	C189.690369,236.641373 192.682724,246.700897 195.930679,257.466797 
M207.413803,194.881500 
	C203.848465,198.306076 200.283127,201.730652 197.637726,204.271606 
	C203.106888,209.899719 208.127350,215.066086 212.575226,219.643219 
	C212.575226,210.405014 212.575226,200.322006 212.575226,189.209000 
	C210.582718,191.416977 209.249847,192.893982 207.413803,194.881500 
z"/>
<path fill="#F8F101" opacity="1.000000" stroke="none" 
	d="
M330.272552,313.902405 
	C323.160431,313.267456 316.048340,312.632538 308.177948,311.861511 
	C303.988831,309.746307 300.253662,308.146118 297.202087,305.694885 
	C293.139954,302.431915 289.609985,298.506409 285.713501,294.612305 
	C283.941315,295.110901 281.779053,295.439423 280.772675,296.694672 
	C277.855652,300.332855 275.086212,300.398590 271.547058,297.679749 
	C268.793213,295.564240 265.722351,293.861481 262.586243,291.732971 
	C254.960098,283.986877 247.540085,276.483124 240.019333,268.645996 
	C237.547791,264.528870 235.177002,260.745087 232.753281,256.876831 
	C235.333817,254.135773 237.684372,251.639008 240.555435,248.589325 
	C235.443481,243.677856 230.490112,239.033463 225.694519,234.231491 
	C224.478592,233.013916 223.299469,231.410873 222.894089,229.787506 
	C219.552261,216.404739 219.351486,202.870529 221.073929,189.221863 
	C221.939026,182.366638 224.331818,176.626968 229.951462,172.213943 
	C233.696335,169.273132 236.914673,165.661850 240.500916,162.223846 
	C237.604065,159.188370 235.241455,156.712708 232.782639,154.136230 
	C235.344086,149.898193 237.739822,145.934311 240.428864,141.825974 
	C248.079559,134.093872 255.436966,126.506203 263.120911,118.803818 
	C265.228516,117.468315 266.990448,116.218338 268.794098,115.031883 
	C276.052368,110.257454 276.017578,110.311279 282.551941,115.859955 
	C283.238190,116.442680 284.735840,116.069885 286.169189,115.990692 
	C287.763458,114.567566 288.982788,113.222641 290.338562,112.033257 
	C295.887817,107.165047 299.742493,99.988045 308.099884,98.925072 
	C315.183044,98.346489 322.266174,97.767906 330.186676,97.195694 
	C334.006287,97.467087 337.000793,97.636299 339.968384,98.015938 
	C347.507233,98.980354 355.108337,99.455925 360.324249,106.506310 
	C363.433990,110.709801 367.481720,114.219383 371.142944,118.077988 
	C374.227264,115.141655 376.729950,112.759079 379.628479,109.999641 
	C385.930695,114.406967 392.028381,118.671234 398.308624,123.206573 
	C405.598206,131.627533 412.705231,139.777435 419.906677,148.272308 
	C421.010254,150.480530 422.019440,152.343750 422.965729,154.090820 
	C416.279541,161.505615 416.322815,162.676727 423.271545,169.612503 
	C425.392853,171.729858 427.772491,173.652420 429.560303,176.021545 
	C431.274719,178.293381 433.267700,180.922379 433.584381,183.579590 
	C434.721375,193.121414 435.722290,202.737762 435.793243,212.333206 
	C435.877350,223.714539 433.569397,234.483490 423.106323,241.509064 
	C422.021027,242.237778 421.219391,243.379807 420.249207,244.290726 
	C417.114594,247.233856 417.884430,250.330048 419.989899,253.364655 
	C420.819824,254.560867 421.992828,255.519058 423.014160,256.590393 
	C421.895844,258.806366 420.853760,260.871368 419.545654,263.131836 
	C412.224121,271.540314 405.168610,279.753326 397.786072,288.075226 
	C394.401825,290.478760 391.425415,292.891693 388.271942,295.045319 
	C379.666107,300.922607 379.637573,300.878143 372.183380,293.792694 
	C371.968658,293.588593 371.673706,293.468842 371.240417,293.201233 
	C366.582642,297.898926 362.050049,302.790985 357.137848,307.266357 
	C355.184631,309.045898 352.517853,310.544891 349.954163,311.053162 
	C343.460571,312.340546 336.841431,312.994659 330.272552,313.902405 
M307.255188,130.502167 
	C300.031006,133.876999 292.806824,137.251831 284.945007,140.866119 
	C275.716309,146.681931 268.286560,154.268188 262.268616,164.032242 
	C246.029877,187.320404 246.152878,223.403488 262.803497,247.809738 
	C268.797760,256.948334 276.089233,264.777618 286.040558,270.873810 
	C293.350281,274.109528 300.659973,277.345276 308.740997,280.877808 
	C315.914215,281.559235 323.087433,282.240692 331.129456,283.037354 
	C336.367645,282.344849 341.760406,282.225708 346.817627,280.862000 
	C370.498749,274.476410 388.100952,260.576202 398.804688,237.463013 
	C408.269684,215.909393 408.585663,194.418228 398.128784,172.287125 
	C396.676575,169.505630 395.483521,166.548004 393.731567,163.970230 
	C378.499847,141.558746 357.886841,128.564209 329.299286,127.826118 
	C322.188568,128.692368 315.077850,129.558609 307.255188,130.502167 
z"/>
<path fill="#0448A6" opacity="1.000000" stroke="none" 
	d="
M557.998230,53.000000 
	C557.998230,40.680202 557.998230,28.860407 557.998230,16.410048 
	C564.844360,16.410048 571.458801,16.303284 578.061707,16.531515 
	C578.992981,16.563704 580.174561,18.090546 580.676331,19.184277 
	C581.118652,20.148472 580.774231,21.474443 580.774231,22.640669 
	C580.774475,144.595047 580.734863,266.549469 580.907776,388.503601 
	C580.915344,393.821320 579.323853,395.094177 574.427368,394.716339 
	C569.159180,394.309784 563.835388,394.624451 557.998230,394.624451 
	C557.998230,280.628571 557.998230,167.064285 557.998230,53.000000 
z"/>
<path fill="#0045A5" opacity="1.000000" stroke="none" 
	d="
M14.786060,46.999947 
	C14.786037,36.683979 14.786037,26.868013 14.786037,16.681313 
	C22.189510,16.681313 29.253839,16.681313 36.736149,16.681313 
	C36.736149,142.316284 36.736149,268.022919 36.736149,394.079712 
	C29.744326,394.079712 22.665585,394.079712 14.786083,394.079712 
	C14.786083,278.653473 14.786083,163.076721 14.786060,46.999947 
z"/>
<path fill="#0145A5" opacity="1.000000" stroke="none" 
	d="
M626.137451,368.000000 
	C626.137451,376.968506 626.137451,385.437012 626.137451,394.233032 
	C618.692261,394.233032 611.617432,394.233032 604.152222,394.233032 
	C604.152222,268.528717 604.152222,142.730270 604.152222,16.695225 
	C611.402405,16.695225 618.487915,16.695225 626.137390,16.695225 
	C626.137390,133.729233 626.137390,250.614624 626.137451,368.000000 
z"/>
<path fill="#0549A4" opacity="1.000000" stroke="none" 
	d="
M398.126038,122.935501 
	C392.028381,118.671234 385.930695,114.406967 379.628479,109.999641 
	C376.729950,112.759079 374.227264,115.141655 371.142944,118.077988 
	C367.481720,114.219383 363.433990,110.709801 360.324249,106.506310 
	C355.108337,99.455925 347.507233,98.980354 339.968384,98.015938 
	C337.000793,97.636299 334.006287,97.467087 330.641663,97.102356 
	C330.262299,94.983826 330.265289,92.964996 330.698364,90.435791 
	C335.118469,89.930031 339.108490,89.934639 342.945129,90.127945 
	C343.054382,90.406593 343.317017,90.496552 343.579681,90.586494 
	C343.379425,90.396149 343.179138,90.205811 342.953461,89.674896 
	C338.643616,84.914780 334.359161,80.495247 330.074707,76.075714 
	C330.128235,65.823662 330.181763,55.571613 330.346863,44.596710 
	C334.784058,40.087234 339.109680,36.300610 343.643127,32.332062 
	C338.382965,26.772133 334.233307,22.386034 330.083679,17.999935 
	C331.376068,17.465284 332.666565,16.470098 333.961121,16.464781 
	C354.742462,16.379398 375.524353,16.417593 396.306061,16.448870 
	C396.772369,16.449572 397.238281,16.697659 398.236420,16.981815 
	C398.236420,29.974354 398.236420,43.054100 397.851074,56.469322 
	C388.907501,48.177505 380.349304,39.550217 372.244415,31.379900 
	C363.535828,39.961811 355.054535,48.319748 347.285339,55.975918 
	C358.505493,59.178314 370.662781,61.813011 382.128845,66.238571 
	C388.850098,68.832779 393.709290,69.645889 398.106812,63.347046 
	C398.171997,72.186562 398.237152,81.026070 398.130371,90.617661 
	C393.525940,95.575073 389.093475,99.780426 384.750946,103.900444 
	C389.684357,107.537140 394.036011,110.745003 398.347229,114.401909 
	C398.246521,117.545799 398.186279,120.240646 398.126038,122.935501 
M359.199249,77.300621 
	C363.027374,81.430214 366.855499,85.559799 370.483459,89.473473 
	C375.641479,84.353882 380.057953,79.970314 385.379700,74.688194 
	C372.798920,71.081985 360.547882,67.570297 348.296844,64.058609 
	C348.016846,64.618912 347.736877,65.179214 347.456909,65.739517 
	C351.204346,69.426537 354.951782,73.113556 359.199249,77.300621 
z"/>
<path fill="#0449A5" opacity="1.000000" stroke="none" 
	d="
M330.273254,314.338501 
	C336.841431,312.994659 343.460571,312.340546 349.954163,311.053162 
	C352.517853,310.544891 355.184631,309.045898 357.137848,307.266357 
	C362.050049,302.790985 366.582642,297.898926 371.240417,293.201233 
	C371.673706,293.468842 371.968658,293.588593 372.183380,293.792694 
	C379.637573,300.878143 379.666107,300.922607 388.271942,295.045319 
	C391.425415,292.891693 394.401825,290.478760 397.842651,288.524597 
	C398.271667,291.567505 398.317078,294.269958 398.150391,297.254822 
	C393.677338,300.515961 389.416351,303.494629 384.142639,307.181244 
	C389.095642,311.711456 393.733673,315.953613 398.371704,320.195740 
	C398.332367,328.980957 398.293030,337.766113 397.857727,346.857758 
	C395.631653,345.005768 393.801605,342.847290 391.971558,340.688843 
	C391.828522,341.233826 391.685455,341.778839 391.542419,342.323822 
	C376.546051,346.611664 361.549652,350.899536 347.493713,354.918488 
	C355.212006,362.660126 363.602051,371.075562 372.993042,380.494934 
	C381.198029,371.816376 389.649139,362.877472 398.100311,353.938599 
	C398.161530,366.711487 398.228638,379.484344 398.266052,392.257324 
	C398.267883,392.880615 398.009338,393.504700 397.762939,394.624023 
	C395.931030,394.624023 394.146729,394.624054 392.362427,394.624054 
	C373.446442,394.624054 354.530365,394.650055 335.614624,394.580200 
	C333.891296,394.573853 332.170227,393.952362 330.436829,392.999756 
	C334.878998,388.559631 339.332520,384.736267 343.753296,380.941010 
	C338.241669,375.180054 334.156616,370.910217 330.071533,366.640350 
	C330.125305,356.367798 330.179077,346.095215 330.316589,335.079346 
	C334.675140,329.919189 338.950043,325.502380 343.467621,320.834808 
	C338.519440,320.834808 334.400818,320.834808 330.282196,320.834808 
	C330.279449,318.814728 330.276703,316.794678 330.273254,314.338501 
M358.169800,334.669739 
	C354.479797,338.084259 350.789764,341.498779 347.099762,344.913330 
	C347.513550,345.570221 347.927338,346.227112 348.341095,346.884003 
	C360.584564,343.353546 372.828064,339.823090 384.426910,336.478516 
	C379.507477,331.334808 375.220947,326.852814 370.475128,321.890656 
	C366.714020,325.802734 362.691986,329.986267 358.169800,334.669739 
z"/>
<path fill="#0247A5" opacity="1.000000" stroke="none" 
	d="
M419.830994,78.712036 
	C419.830994,58.133919 419.830994,37.555805 419.830994,16.691242 
	C428.029358,16.691242 435.754456,16.691242 444.022461,16.691242 
	C444.022461,35.565636 444.022461,54.285782 444.018280,73.731781 
	C444.065002,74.820953 444.115936,75.184265 444.095215,76.048355 
	C443.967651,85.286499 443.911743,94.023872 443.564270,102.639282 
	C435.458832,94.582237 427.644897,86.647141 419.830994,78.712036 
z"/>
<path fill="#0247A5" opacity="1.000000" stroke="none" 
	d="
M444.164673,336.825653 
	C444.164673,355.930695 444.164673,375.035706 444.164673,394.376923 
	C435.926025,394.376923 428.324463,394.376923 419.940155,394.376923 
	C419.940155,373.928650 419.940155,353.533173 420.041748,332.369385 
	C428.049133,323.789856 435.954895,315.978668 443.908905,308.623047 
	C444.026886,317.864838 444.096649,326.651001 444.124878,335.667877 
	C444.036163,336.214111 444.063293,336.523132 444.164673,336.825653 
z"/>
<path fill="#F7F102" opacity="1.000000" stroke="none" 
	d="
M398.387695,113.952873 
	C394.036011,110.745003 389.684357,107.537140 384.750946,103.900444 
	C389.093475,99.780426 393.525940,95.575073 398.159729,91.070404 
	C404.378906,85.398521 404.395447,85.376030 411.043915,90.268044 
	C413.819244,92.310165 416.507416,94.470779 419.710785,96.994339 
	C428.075562,105.916748 435.964722,114.422333 443.969116,123.274033 
	C445.279877,125.493614 446.475464,127.367081 447.674438,129.245926 
	C446.292236,130.906891 445.072296,132.372803 443.540527,133.961655 
	C438.607727,138.807770 433.986816,143.530960 429.264954,148.357300 
	C425.930817,143.782486 423.032867,139.806137 420.022583,135.514557 
	C412.736053,128.117172 405.561859,121.035019 398.387695,113.952873 
z"/>
<path fill="#F8F102" opacity="1.000000" stroke="none" 
	d="
M398.618622,320.378296 
	C393.733673,315.953613 389.095642,311.711456 384.142639,307.181244 
	C389.416351,303.494629 393.677338,300.515961 398.449158,297.148590 
	C406.016724,289.478485 413.073456,282.197083 420.421021,274.765625 
	C423.397034,270.698242 426.082214,266.780914 429.899597,261.211853 
	C434.860931,266.817139 439.356018,271.895660 444.000244,277.276764 
	C445.590973,278.683807 447.032532,279.788269 448.227295,280.703674 
	C446.425201,283.650726 445.137878,285.756012 443.555756,288.021545 
	C435.450165,296.780090 427.639343,305.378357 419.828491,313.976624 
	C416.520905,316.422455 413.240601,318.906281 409.899628,321.305603 
	C404.066803,325.494476 404.051178,325.472717 398.618622,320.378296 
z"/>
<path fill="#064AA6" opacity="1.000000" stroke="none" 
	d="
M262.858246,358.896667 
	C262.797913,369.221039 262.584259,379.548035 262.759064,389.868439 
	C262.821655,393.563019 261.791168,394.899994 257.989990,394.708527 
	C252.202774,394.416992 246.390060,394.632202 240.007660,394.632202 
	C240.007660,375.151947 240.007660,356.062317 240.396088,336.461060 
	C242.544205,334.409912 244.303894,332.870361 246.259689,331.159241 
	C243.834518,329.234528 241.853180,327.662079 239.924377,325.642731 
	C240.027237,322.532043 240.077560,319.868225 240.435883,317.304474 
	C244.466965,320.062531 248.190048,322.720520 253.077652,326.209869 
	C256.384247,322.383728 259.506317,318.771057 262.645538,315.616394 
	C262.759613,324.883362 262.856567,333.692383 262.733093,342.716400 
	C260.109772,345.511017 257.706909,348.090576 255.285202,350.690369 
	C257.961060,353.589996 260.409668,356.243317 262.858246,358.896667 
z"/>
<path fill="#064AA6" opacity="1.000000" stroke="none" 
	d="
M240.093857,74.939888 
	C240.093857,55.651085 240.093857,36.362282 240.093857,16.398451 
	C246.811096,16.398451 253.413025,16.225866 259.985565,16.587397 
	C260.954224,16.640680 262.525085,19.207745 262.558441,20.641048 
	C262.794525,30.784496 262.702057,40.935589 262.589447,51.814251 
	C260.031281,55.146355 257.598083,57.748455 255.198486,60.314575 
	C257.964508,63.236225 260.459015,65.871078 262.838928,69.002411 
	C262.689819,78.267822 262.655273,87.036758 262.396179,95.596199 
	C258.862213,92.219360 255.552765,89.052002 251.948944,85.602898 
	C247.936905,88.365074 244.036224,91.050575 240.092072,93.299370 
	C239.981140,90.179062 239.913681,87.495468 240.037567,84.537117 
	C242.181931,82.833298 244.134918,81.404228 246.710739,79.519402 
	C244.187851,77.773315 242.140854,76.356598 240.093857,74.939888 
z"/>
<path fill="#F7F101" opacity="1.000000" stroke="none" 
	d="
M398.268982,353.643738 
	C389.649139,362.877472 381.198029,371.816376 372.993042,380.494934 
	C363.602051,371.075562 355.212006,362.660126 347.493713,354.918488 
	C361.549652,350.899536 376.546051,346.611664 391.542419,342.323822 
	C391.685455,341.778839 391.828522,341.233826 391.971558,340.688843 
	C393.801605,342.847290 395.631653,345.005768 397.768311,347.353882 
	C398.895935,348.547455 399.716919,349.551331 400.620514,350.656281 
	C399.853912,351.601929 399.145782,352.475433 398.268982,353.643738 
z"/>
<path fill="#F8F102" opacity="1.000000" stroke="none" 
	d="
M263.168091,359.050354 
	C260.409668,356.243317 257.961060,353.589996 255.285202,350.690369 
	C257.706909,348.090576 260.109772,345.511017 263.034058,342.528259 
	C265.037781,342.289032 266.604889,342.199097 267.987701,342.661011 
	C273.887024,344.631470 279.731934,346.765045 285.971466,348.987946 
	C293.573792,350.651276 300.801300,352.165771 308.028839,353.680237 
	C311.330353,354.404480 308.816315,355.509033 307.757141,356.891571 
	C300.066559,364.615570 292.831360,371.936646 285.596191,379.257721 
	C284.314117,378.639526 282.764435,378.297791 281.793518,377.358093 
	C275.617218,371.380188 269.568604,365.270386 263.168091,359.050354 
z"/>
<path fill="#F7F101" opacity="1.000000" stroke="none" 
	d="
M398.318573,63.119812 
	C393.709290,69.645889 388.850098,68.832779 382.128845,66.238571 
	C370.662781,61.813011 358.505493,59.178314 347.285339,55.975918 
	C355.054535,48.319748 363.535828,39.961811 372.244415,31.379900 
	C380.349304,39.550217 388.907501,48.177505 397.782501,56.938477 
	C399.713287,58.903408 401.424774,60.727448 398.318573,63.119812 
z"/>
<path fill="#F8F102" opacity="1.000000" stroke="none" 
	d="
M262.953522,68.505928 
	C260.459015,65.871078 257.964508,63.236225 255.198486,60.314575 
	C257.598083,57.748455 260.031281,55.146355 262.648193,52.281040 
	C268.979401,45.993317 275.098175,39.938911 281.301544,33.972515 
	C282.387451,32.928097 283.828979,32.253445 285.564636,31.873852 
	C293.320862,39.538300 300.618744,46.736912 307.916626,53.935528 
	C308.164490,54.979660 308.412354,56.023792 307.939728,57.112000 
	C300.017944,58.817551 292.816681,60.479031 285.257874,62.143005 
	C279.225800,64.206718 273.583405,66.364868 267.854889,68.263329 
	C266.358643,68.759186 264.594574,68.447006 262.953522,68.505928 
z"/>
<path fill="#0146A4" opacity="1.000000" stroke="none" 
	d="
M285.851410,294.865509 
	C289.609985,298.506409 293.139954,302.431915 297.202087,305.694885 
	C300.253662,308.146118 303.988831,309.746307 307.760040,311.894226 
	C308.081573,322.526428 308.062714,332.989777 307.652527,343.781921 
	C300.033936,336.756958 292.806671,329.403229 285.609955,321.578552 
	C285.710815,312.360229 285.781097,303.612854 285.851410,294.865509 
z"/>
<path fill="#0146A4" opacity="1.000000" stroke="none" 
	d="
M308.086487,98.461922 
	C299.742493,99.988045 295.887817,107.165047 290.338562,112.033257 
	C288.982788,113.222641 287.763458,114.567566 286.100555,115.514999 
	C285.677124,106.410309 285.634521,97.631592 285.775818,88.561188 
	C293.265350,81.007179 300.570984,73.744843 307.876617,66.482513 
	C307.942108,76.987930 308.007599,87.493347 308.086487,98.461922 
z"/>
<path fill="#0549A6" opacity="1.000000" stroke="none" 
	d="
M307.975830,53.474026 
	C300.618744,46.736912 293.320862,39.538300 285.807800,32.043037 
	C285.592621,26.805422 285.592621,21.864454 285.592621,16.663395 
	C293.305786,16.663395 300.382172,16.663395 308.035004,16.663395 
	C308.035004,28.867924 308.035004,40.940224 307.975830,53.474026 
z"/>
<path fill="#0549A6" opacity="1.000000" stroke="none" 
	d="
M285.618622,379.704895 
	C292.831360,371.936646 300.066559,364.615570 307.609985,357.183411 
	C307.918243,369.371216 307.918243,381.670105 307.918243,394.298218 
	C300.572052,394.298218 293.361328,394.298218 285.641052,394.298218 
	C285.641052,389.406281 285.641052,384.779144 285.618622,379.704895 
z"/>
<path fill="#F6F007" opacity="1.000000" stroke="none" 
	d="
M329.726501,17.819714 
	C334.233307,22.386034 338.382965,26.772133 343.643127,32.332062 
	C339.109680,36.300610 334.784058,40.087234 330.271667,44.088989 
	C328.839264,44.362240 327.108734,44.979744 326.426300,44.388157 
	C321.822388,40.397198 317.440521,36.150108 312.162933,31.215664 
	C317.417328,26.302017 321.826965,22.083292 326.383118,18.029224 
	C327.003174,17.477510 328.355835,17.749100 329.726501,17.819714 
z"/>
<path fill="#F3EE04" opacity="1.000000" stroke="none" 
	d="
M149.867493,194.102173 
	C151.189590,192.884598 152.333969,191.960037 153.162918,191.290314 
	C158.045364,196.193741 162.815247,200.984146 167.453415,205.642258 
	C163.037216,209.905060 158.269379,214.507278 153.131363,219.466827 
	C152.779694,219.161850 151.720108,218.242905 150.352997,217.208038 
	C146.407562,213.261780 142.769638,209.431442 138.202011,204.622238 
	C142.050781,201.195847 145.870270,197.795517 149.867493,194.102173 
z"/>
<path fill="#F6F006" opacity="1.000000" stroke="none" 
	d="
M329.776794,366.456238 
	C334.156616,370.910217 338.241669,375.180054 343.753296,380.941010 
	C339.332520,384.736267 334.878998,388.559631 330.252167,392.657990 
	C328.672760,392.805176 326.806641,393.209991 325.938171,392.459808 
	C321.545532,388.665436 317.412354,384.570740 312.129517,379.581421 
	C317.482422,374.644470 322.165497,370.257538 326.971619,366.009827 
	C327.398041,365.632904 328.626221,366.163177 329.776794,366.456238 
z"/>
<path fill="#F9F207" opacity="1.000000" stroke="none" 
	d="
M444.467133,336.970093 
	C444.063293,336.523132 444.036163,336.214111 444.428223,335.493927 
	C447.229950,332.656677 449.695282,330.232635 452.141937,327.789856 
	C458.509399,321.432373 458.506134,321.429108 465.118744,327.273956 
	C467.795990,330.129578 470.473236,332.985199 473.382294,336.088104 
	C470.737213,338.910370 468.191895,341.626221 465.462769,344.584045 
	C463.093750,346.778320 460.908600,348.730652 458.130249,351.212982 
	C453.575378,346.406616 449.172485,341.760590 444.467133,336.970093 
z"/>
<path fill="#F7F103" opacity="1.000000" stroke="none" 
	d="
M444.166870,75.547569 
	C444.115936,75.184265 444.065002,74.820953 444.086334,74.191254 
	C448.575531,68.997040 452.992462,64.069206 457.563354,58.969650 
	C460.672943,61.913918 462.695648,63.829067 465.026978,65.927429 
	C467.881439,68.853271 470.427246,71.595894 473.263580,74.651512 
	C470.719299,77.423065 468.129791,80.243935 465.004120,83.466980 
	C462.588470,85.644386 460.708954,87.419601 458.696991,89.319901 
	C453.663177,84.548607 448.915039,80.048080 444.166870,75.547569 
z"/>
<path fill="#F0ED0A" opacity="1.000000" stroke="none" 
	d="
M307.988556,66.319221 
	C300.570984,73.744843 293.265350,81.007179 285.440918,88.602890 
	C280.198425,84.782120 275.474731,80.627960 269.916656,75.740036 
	C275.977051,73.452744 280.834595,71.619431 286.083252,69.759995 
	C293.650818,68.129845 300.827240,66.525818 308.003693,64.921799 
	C308.035980,65.333168 308.068237,65.744553 307.988556,66.319221 
z"/>
<path fill="#F1ED0A" opacity="1.000000" stroke="none" 
	d="
M285.579407,322.049500 
	C292.806671,329.403229 300.033936,336.756958 307.569489,344.271606 
	C308.030853,344.896881 308.183929,345.361206 307.769043,345.900452 
	C300.026855,344.377563 292.852661,342.779785 285.347443,341.053955 
	C280.356171,339.143372 275.695953,337.360779 269.536102,335.004608 
	C273.115967,331.902618 275.657623,329.578156 278.332764,327.419067 
	C280.670288,325.532532 283.158051,323.832153 285.579407,322.049500 
z"/>
<path fill="#F6F004" opacity="1.000000" stroke="none" 
	d="
M443.860718,308.167480 
	C435.954895,315.978668 428.049133,323.789856 419.987335,331.918518 
	C418.346436,333.493866 416.861542,334.751770 414.806244,336.492889 
	C413.498260,334.428436 412.213837,332.401154 410.831818,330.219788 
	C413.195984,328.435730 416.430573,325.994843 420.188538,323.218750 
	C428.532104,315.025208 436.352325,307.166870 444.466248,299.127747 
	C447.688538,295.034149 450.617096,291.121338 453.260864,287.589020 
	C455.296722,289.281433 457.170654,290.839203 460.214935,293.369873 
	C454.460876,298.576263 449.160797,303.371857 443.860718,308.167480 
z"/>
<path fill="#F5F004" opacity="1.000000" stroke="none" 
	d="
M239.871857,326.089600 
	C241.853180,327.662079 243.834518,329.234528 246.259689,331.159241 
	C244.303894,332.870361 242.544205,334.409912 240.447815,335.997864 
	C232.978073,328.855103 225.845032,321.663940 218.422455,314.348724 
	C210.829010,307.418488 203.525116,300.612244 196.314178,293.892670 
	C199.152252,291.044373 200.971024,289.219055 202.465668,287.719025 
	C207.217590,293.623901 212.217117,299.836456 217.658173,306.501373 
	C225.357071,313.332336 232.614471,319.710968 239.871857,326.089600 
z"/>
<path fill="#F6F003" opacity="1.000000" stroke="none" 
	d="
M239.888184,75.208023 
	C242.140854,76.356598 244.187851,77.773315 246.710739,79.519402 
	C244.134918,81.404228 242.181931,82.833298 239.710358,84.635635 
	C232.067566,91.499626 224.943344,97.990364 217.819122,104.481094 
	C212.632599,110.705833 207.446060,116.930573 201.896606,123.590881 
	C200.724213,122.009819 199.274048,120.054161 197.157776,117.200218 
	C203.567535,111.014870 210.677170,104.154152 217.961746,96.982285 
	C225.318619,89.606148 232.500549,82.541145 239.888184,75.208023 
z"/>
<path fill="#F7F105" opacity="1.000000" stroke="none" 
	d="
M419.549072,78.576981 
	C427.644897,86.647141 435.458832,94.582237 443.741394,102.940994 
	C449.259094,108.073944 454.308197,112.783241 459.088654,117.241982 
	C456.944763,120.001816 455.569489,121.772209 453.973785,123.826324 
	C450.286377,119.221077 447.228424,115.401978 444.043793,111.281830 
	C435.958618,103.303123 428.000122,95.625443 420.041626,87.947769 
	C416.742615,85.323662 413.443634,82.699547 410.010223,79.968513 
	C411.738037,78.430077 413.390900,76.958374 415.502716,75.078049 
	C416.447388,75.922203 417.857239,77.182060 419.549072,78.576981 
z"/>
<path fill="#084CA0" opacity="1.000000" stroke="none" 
	d="
M444.172546,299.308502 
	C436.352325,307.166870 428.532104,315.025208 420.378845,322.940247 
	C420.009155,320.289276 419.972504,317.581573 419.882202,314.425262 
	C427.639343,305.378357 435.450165,296.780090 443.615662,288.491425 
	C444.037720,292.303528 444.105103,295.806000 444.172546,299.308502 
z"/>
<path fill="#084CA0" opacity="1.000000" stroke="none" 
	d="
M420.004517,88.394531 
	C428.000122,95.625443 435.958618,103.303123 443.974304,111.768188 
	C443.972290,116.013016 443.913116,119.470467 443.853912,122.927910 
	C435.964722,114.422333 428.075562,105.916748 420.009583,97.107552 
	C419.877655,94.149719 419.922546,91.495499 420.004517,88.394531 
z"/>
<path fill="#F8F101" opacity="1.000000" stroke="none" 
	d="
M329.802460,320.903229 
	C334.400818,320.834808 338.519440,320.834808 343.467621,320.834808 
	C338.950043,325.502380 334.675140,329.919189 330.227936,334.610321 
	C328.671082,334.767334 326.795258,335.187134 325.982941,334.444183 
	C321.248260,330.113647 316.763092,325.510345 312.165771,320.971649 
	C318.107544,320.971649 323.715149,320.971649 329.802460,320.903229 
z"/>
<path fill="#F7F105" opacity="1.000000" stroke="none" 
	d="
M343.098511,89.939247 
	C339.108490,89.934639 335.118469,89.930031 330.685425,90.004395 
	C324.442291,90.083374 318.642242,90.083374 313.113678,90.083374 
	C317.539246,85.436241 322.352783,80.334961 327.271881,75.337639 
	C327.553558,75.051468 328.697052,75.613670 329.757080,75.928368 
	C334.359161,80.495247 338.643616,84.914780 342.982422,89.654305 
	C343.036743,89.974297 343.098511,89.939247 343.098511,89.939247 
z"/>
<path fill="#084CA0" opacity="1.000000" stroke="none" 
	d="
M308.036987,64.494583 
	C300.827240,66.525818 293.650818,68.129845 286.072632,69.336220 
	C285.652435,66.672546 285.633911,64.406532 285.615387,62.140511 
	C292.816681,60.479031 300.017944,58.817551 307.630676,57.200722 
	C308.051514,59.519367 308.060913,61.793362 308.036987,64.494583 
z"/>
<path fill="#084CA0" opacity="1.000000" stroke="none" 
	d="
M285.678467,341.182007 
	C292.852661,342.779785 300.026855,344.377563 307.606262,346.030945 
	C308.023926,348.339142 308.036407,350.591736 308.038879,353.262268 
	C300.801300,352.165771 293.573792,350.651276 285.985870,348.564392 
	C285.643127,345.722015 285.660797,343.451996 285.678467,341.182007 
z"/>
<path fill="#FFFFFC" opacity="1.000000" stroke="none" 
	d="
M443.969116,123.274033 
	C443.913116,119.470467 443.972290,116.013016 444.100983,112.069221 
	C447.228424,115.401978 450.286377,119.221077 453.973785,123.826324 
	C455.569489,121.772209 456.944763,120.001816 459.088654,117.241982 
	C454.308197,112.783241 449.259094,108.073944 444.032898,103.062943 
	C443.911743,94.023872 443.967651,85.286499 444.095215,76.048347 
	C448.915039,80.048080 453.663177,84.548607 458.696991,89.319901 
	C460.708954,87.419601 462.588470,85.644386 464.773071,83.667923 
	C465.191528,101.950272 465.304871,120.433868 465.190613,139.692535 
	C465.129791,142.588943 465.296570,144.710281 465.463348,146.831619 
	C465.424438,153.259430 465.385529,159.687256 464.979492,166.259964 
	C462.419464,160.311249 460.226593,154.217621 458.033691,148.123993 
	C457.454285,147.848816 456.874878,147.573624 456.295471,147.298431 
	C452.252686,151.850342 448.209900,156.402252 444.096252,160.493546 
	C443.967743,151.301529 443.910065,142.570114 443.852386,133.838715 
	C445.072296,132.372803 446.292236,130.906891 447.674438,129.245926 
	C446.475464,127.367081 445.279877,125.493614 443.969116,123.274033 
z"/>
<path fill="#FFFFFD" opacity="1.000000" stroke="none" 
	d="
M444.466248,299.127747 
	C444.105103,295.806000 444.037720,292.303528 443.910400,288.331146 
	C445.137878,285.756012 446.425201,283.650726 448.227295,280.703674 
	C447.032532,279.788269 445.590973,278.683807 444.065430,276.813171 
	C444.044403,267.289948 444.107300,258.532898 444.470917,249.926727 
	C448.856232,254.394592 452.940826,258.711609 457.639526,263.677643 
	C460.397980,256.327057 462.764252,250.021530 465.130524,243.716003 
	C465.235748,250.193024 465.340973,256.670044 465.318878,263.975647 
	C465.268127,266.889496 465.344696,268.974762 465.421234,271.060059 
	C465.399841,289.478821 465.378448,307.897583 465.237915,326.795166 
	C458.506134,321.429108 458.509399,321.432373 452.141937,327.789856 
	C449.695282,330.232635 447.229950,332.656677 444.469788,335.263214 
	C444.096649,326.651001 444.026886,317.864838 443.908936,308.623077 
	C449.160797,303.371857 454.460876,298.576263 460.214935,293.369873 
	C457.170654,290.839203 455.296722,289.281433 453.260864,287.589020 
	C450.617096,291.121338 447.688538,295.034149 444.466248,299.127747 
z"/>
<path fill="#FFFFFE" opacity="1.000000" stroke="none" 
	d="
M465.431854,183.921722 
	C465.427124,197.918106 465.422424,211.914505 465.246704,226.687607 
	C458.107056,234.384689 451.138489,241.305054 444.096558,247.745026 
	C443.966614,238.515427 443.910065,229.766220 444.018707,220.719620 
	C449.202881,215.527740 454.221863,210.633270 460.239655,204.764771 
	C454.354218,199.405594 449.105042,194.625763 443.906311,189.389389 
	C444.027069,180.170929 444.097321,171.408997 444.468506,162.809784 
	C451.656952,169.955566 458.544403,176.938644 465.431854,183.921722 
z"/>
<path fill="#F7F101" opacity="1.000000" stroke="none" 
	d="
M465.662415,271.255951 
	C465.344696,268.974762 465.268127,266.889496 465.327271,264.450256 
	C469.600891,250.944138 473.738861,237.791916 477.482605,225.892609 
	C484.569397,233.025116 492.788452,241.297180 500.524994,249.083633 
	C491.846039,257.757202 482.177032,267.420258 472.257965,277.333221 
	C470.712982,275.903229 468.308319,273.677521 465.662415,271.255951 
z"/>
<path fill="#F8F101" opacity="1.000000" stroke="none" 
	d="
M465.585480,147.158646 
	C465.296570,144.710281 465.129791,142.588943 465.200134,140.149673 
	C467.830048,137.556412 470.222870,135.281097 472.084320,133.511047 
	C481.822357,143.236053 491.503571,152.904343 500.770050,162.158432 
	C493.263123,169.663528 484.912323,178.012253 477.544952,185.377792 
	C473.822937,173.463333 469.765259,160.474503 465.585480,147.158646 
z"/>
<path fill="#F2EE05" opacity="1.000000" stroke="none" 
	d="
M495.914551,196.910522 
	C497.876343,194.420410 499.587006,192.179855 501.271484,189.973602 
	C507.184357,195.938583 511.969269,200.765625 516.768250,205.606873 
	C512.086914,210.278305 507.274231,215.080795 502.433289,219.911453 
	C497.776886,215.001785 493.104858,210.075638 487.940063,204.629929 
	C490.066711,202.573105 492.865082,199.866592 495.914551,196.910522 
z"/>
<path fill="#F7F109" opacity="1.000000" stroke="none" 
	d="
M465.790009,184.181305 
	C458.544403,176.938644 451.656952,169.955566 444.409180,162.528931 
	C444.088257,161.708282 444.127686,161.331223 444.167114,160.954163 
	C448.209900,156.402252 452.252686,151.850342 456.295471,147.298431 
	C456.874878,147.573624 457.454285,147.848816 458.033691,148.123993 
	C460.226593,154.217621 462.419464,160.311249 464.873535,166.794220 
	C466.092072,172.287445 467.113129,177.380890 467.947754,182.504730 
	C468.097748,183.425629 469.196045,186.111771 465.790009,184.181305 
z"/>
<path fill="#F8F20B" opacity="1.000000" stroke="none" 
	d="
M444.169922,248.225433 
	C451.138489,241.305054 458.107056,234.384689 465.240356,227.216858 
	C466.201080,226.490067 466.997131,226.010742 468.548157,225.076813 
	C467.342499,231.622971 466.280548,237.389160 465.174561,243.435669 
	C462.764252,250.021530 460.397980,256.327057 457.639526,263.677643 
	C452.940826,258.711609 448.856232,254.394592 444.420715,249.670074 
	C444.103149,248.916840 444.136536,248.571136 444.169922,248.225433 
z"/>
<path fill="#F8F102" opacity="1.000000" stroke="none" 
	d="
M240.135529,93.736076 
	C244.036224,91.050575 247.936905,88.365074 251.948944,85.602898 
	C255.552765,89.052002 258.862213,92.219360 262.604065,95.889557 
	C265.873077,98.857513 268.709686,101.322617 271.714691,103.934105 
	C268.023651,106.487022 265.328308,108.351257 262.356018,110.357620 
	C254.658813,117.357063 247.238541,124.214386 239.530106,131.219574 
	C235.158417,136.886749 231.074890,142.406082 226.841293,148.128250 
	C223.901093,145.387558 221.032715,142.713821 218.164352,140.040100 
	C214.858459,136.554688 211.552567,133.069260 207.997391,129.321014 
	C211.265396,124.875099 214.583954,120.360420 218.330353,115.371964 
	C225.883972,107.844139 233.009750,100.790108 240.135529,93.736076 
z"/>
<path fill="#F8F102" opacity="1.000000" stroke="none" 
	d="
M262.628418,315.158386 
	C259.506317,318.771057 256.384247,322.383728 253.077652,326.209869 
	C248.190048,322.720520 244.466965,320.062531 240.229340,317.025421 
	C232.532593,309.690918 225.350418,302.735535 218.168228,295.780151 
	C214.791870,291.057220 211.415512,286.334290 207.789139,281.261627 
	C211.174042,278.009308 214.528824,274.785889 218.315796,271.115387 
	C221.303741,267.921692 223.859512,265.175079 226.386719,262.459167 
	C231.252823,268.772552 235.538177,274.332428 239.937469,280.223663 
	C247.573746,287.280640 255.096115,294.006317 262.886230,300.979492 
	C265.720917,302.928589 268.287811,304.630188 270.970886,306.408783 
	C268.069519,309.451752 265.348938,312.305054 262.628418,315.158386 
z"/>
<path fill="#FFFFFB" opacity="1.000000" stroke="none" 
	d="
M239.823547,279.892334 
	C235.538177,274.332428 231.252823,268.772552 226.386719,262.459167 
	C223.859512,265.175079 221.303741,267.921692 218.452545,270.799194 
	C218.104965,235.439514 218.049423,199.948975 218.003265,164.458435 
	C217.993088,156.626556 218.016235,148.794662 218.094208,140.501434 
	C221.032715,142.713821 223.901093,145.387558 226.841293,148.128250 
	C231.074890,142.406082 235.158417,136.886749 239.598068,131.667130 
	C240.014648,135.301361 240.075104,138.635880 240.135559,141.970413 
	C237.739822,145.934311 235.344086,149.898193 232.782639,154.136230 
	C235.241455,156.712708 237.604065,159.188370 240.500916,162.223846 
	C236.914673,165.661850 233.696335,169.273132 229.951462,172.213943 
	C224.331818,176.626968 221.939026,182.366638 221.073929,189.221863 
	C219.351486,202.870529 219.552261,216.404739 222.894089,229.787506 
	C223.299469,231.410873 224.478592,233.013916 225.694519,234.231491 
	C230.490112,239.033463 235.443481,243.677856 240.555435,248.589325 
	C237.684372,251.639008 235.333817,254.135773 232.753281,256.876831 
	C235.177002,260.745087 237.547791,264.528870 239.974274,269.102875 
	C239.961136,273.226166 239.892334,276.559235 239.823547,279.892334 
z"/>
<path fill="#F7F101" opacity="1.000000" stroke="none" 
	d="
M189.165985,272.057800 
	C187.169556,274.519592 185.435684,276.728271 183.961609,278.606018 
	C173.365799,268.024963 163.771027,258.443573 154.486603,249.172058 
	C162.527863,241.114975 170.798737,232.827850 179.273834,224.336075 
	C180.116272,228.623474 180.669327,233.313461 181.991577,237.775528 
	C184.711517,246.954163 187.587524,256.106598 190.945297,265.065155 
	C192.097504,268.139221 191.892105,269.988373 189.165985,272.057800 
z"/>
<path fill="#F7F001" opacity="1.000000" stroke="none" 
	d="
M156.620239,165.285004 
	C155.472061,164.078552 154.586395,163.122421 154.013824,162.504318 
	C163.819122,152.705093 173.426254,143.103912 183.784088,132.752487 
	C185.923355,135.139771 188.540878,137.904739 190.937408,140.849564 
	C191.505875,141.548111 191.721497,142.971573 191.443741,143.855591 
	C186.991409,158.026199 182.432678,172.163391 177.838898,186.493011 
	C171.316025,179.969650 164.099380,172.752487 156.620239,165.285004 
z"/>
<path fill="#F8F101" opacity="1.000000" stroke="none" 
	d="
M198.285767,60.773460 
	C203.034668,65.430214 207.525894,69.849243 211.963470,74.215500 
	C206.990982,79.148750 202.199677,83.902237 197.391830,88.672150 
	C193.025635,83.993591 188.456207,79.097267 183.218842,73.485199 
	C187.501205,69.740616 192.764648,65.138168 198.285767,60.773460 
z"/>
<path fill="#F6F002" opacity="1.000000" stroke="none" 
	d="
M190.116150,343.896973 
	C187.432571,341.371552 185.001282,339.097504 182.946136,337.175262 
	C188.037354,332.091614 192.792007,327.344025 197.205719,322.936859 
	C201.403336,327.142029 206.170074,331.917297 210.809875,336.565460 
	C206.608902,340.750153 201.835464,345.505066 196.129776,351.188629 
	C194.370453,349.038757 192.369446,346.593536 190.116150,343.896973 
z"/>
<path fill="#ECEA08" opacity="1.000000" stroke="none" 
	d="
M203.537582,170.537979 
	C198.380814,175.724411 193.473755,180.660782 188.466003,185.698456 
	C187.304169,179.196960 192.991196,157.904343 198.318497,148.453568 
	C202.642212,152.959763 206.957275,157.456955 212.391495,163.120529 
	C209.845123,165.241684 206.816208,167.764801 203.537582,170.537979 
z"/>
<path fill="#EDEA08" opacity="1.000000" stroke="none" 
	d="
M195.802887,257.113617 
	C192.682724,246.700897 189.690369,236.641373 187.141510,228.072754 
	C194.164719,235.118774 201.930099,242.909363 209.524643,250.528549 
	C206.988220,252.953262 202.479126,257.263824 197.822708,261.715179 
	C197.439774,260.855316 196.685226,259.161072 195.802887,257.113617 
z"/>
<path fill="#FFFFF6" opacity="1.000000" stroke="none" 
	d="
M218.095551,296.254211 
	C225.350418,302.735535 232.532593,309.690918 239.921341,316.925354 
	C240.077560,319.868225 240.027237,322.532043 239.924377,325.642731 
	C232.614471,319.710968 225.357071,313.332336 217.961090,306.665131 
	C217.889297,303.160461 217.956100,299.944366 218.095551,296.254211 
z"/>
<path fill="#FFFFF6" opacity="1.000000" stroke="none" 
	d="
M240.092072,93.299370 
	C233.009750,100.790108 225.883972,107.844139 218.463867,115.065125 
	C218.104294,111.977730 218.039047,108.723373 217.896454,104.975060 
	C224.943344,97.990364 232.067566,91.499626 239.518982,84.910385 
	C239.913681,87.495468 239.981140,90.179062 240.092072,93.299370 
z"/>
<path fill="#F7F101" opacity="1.000000" stroke="none" 
	d="
M207.665375,194.626251 
	C209.249847,192.893982 210.582718,191.416977 212.575226,189.209000 
	C212.575226,200.322006 212.575226,210.405014 212.575226,219.643219 
	C208.127350,215.066086 203.106888,209.899719 197.637726,204.271606 
	C200.283127,201.730652 203.848465,198.306076 207.665375,194.626251 
z"/>
<path fill="#0247A3" opacity="1.000000" stroke="none" 
	d="
M444.096558,247.745026 
	C444.136536,248.571136 444.103149,248.916840 444.119995,249.519196 
	C444.107300,258.532898 444.044403,267.289948 443.916290,276.510590 
	C439.356018,271.895660 434.860931,266.817139 429.899597,261.211853 
	C426.082214,266.780914 423.397034,270.698242 420.373535,274.311768 
	C419.960693,270.317444 419.886169,266.626892 419.811646,262.936371 
	C420.853760,260.871368 421.895844,258.806366 423.014160,256.590393 
	C421.992828,255.519058 420.819824,254.560867 419.989899,253.364655 
	C417.884430,250.330048 417.114594,247.233856 420.249207,244.290726 
	C421.219391,243.379807 422.021027,242.237778 423.106323,241.509064 
	C433.569397,234.483490 435.877350,223.714539 435.793243,212.333206 
	C435.722290,202.737762 434.721375,193.121414 433.584381,183.579590 
	C433.267700,180.922379 431.274719,178.293381 429.560303,176.021545 
	C427.772491,173.652420 425.392853,171.729858 423.271545,169.612503 
	C416.322815,162.676727 416.279541,161.505615 422.965729,154.090820 
	C422.019440,152.343750 421.010254,150.480530 419.970764,147.819366 
	C420.005310,143.290863 420.070129,139.560333 420.134918,135.829788 
	C423.032867,139.806137 425.930817,143.782486 429.264954,148.357300 
	C433.986816,143.530960 438.607727,138.807770 443.540527,133.961655 
	C443.910065,142.570114 443.967743,151.301529 444.096252,160.493530 
	C444.127686,161.331223 444.088257,161.708282 444.108185,162.366211 
	C444.097321,171.408997 444.027069,180.170929 443.544006,189.617996 
	C443.071747,199.874313 442.994141,209.445480 442.992188,219.016663 
	C442.992035,219.683380 443.553314,220.350235 443.853516,221.017029 
	C443.910065,229.766220 443.966614,238.515427 444.096558,247.745026 
z"/>
<path fill="#FBFCFA" opacity="1.000000" stroke="none" 
	d="
M262.632965,110.215485 
	C265.328308,108.351257 268.023651,106.487022 271.714691,103.934105 
	C268.709686,101.322617 265.873077,98.857513 262.828613,96.099045 
	C262.655273,87.036758 262.689819,78.267822 262.838928,69.002411 
	C264.594574,68.447006 266.358643,68.759186 267.854889,68.263329 
	C273.583405,66.364868 279.225800,64.206718 285.257874,62.143005 
	C285.633911,64.406532 285.652435,66.672546 285.681519,69.362343 
	C280.834595,71.619431 275.977051,73.452744 269.916656,75.740036 
	C275.474731,80.627960 280.198425,84.782120 285.257019,88.894577 
	C285.634521,97.631592 285.677124,106.410309 285.788391,115.664719 
	C284.735840,116.069885 283.238190,116.442680 282.551941,115.859955 
	C276.017578,110.311279 276.052368,110.257454 268.794098,115.031883 
	C266.990448,116.218338 265.228516,117.468315 263.081177,118.367889 
	C262.687592,115.436287 262.660278,112.825890 262.632965,110.215485 
z"/>
<path fill="#FBFCFB" opacity="1.000000" stroke="none" 
	d="
M262.645508,315.616394 
	C265.348938,312.305054 268.069519,309.451752 270.970886,306.408783 
	C268.287811,304.630188 265.720917,302.928589 262.901001,300.545807 
	C262.696106,297.234833 262.744232,294.605042 262.792389,291.975281 
	C265.722351,293.861481 268.793213,295.564240 271.547058,297.679749 
	C275.086212,300.398590 277.855652,300.332855 280.772675,296.694672 
	C281.779053,295.439423 283.941315,295.110901 285.713501,294.612305 
	C285.781097,303.612854 285.710815,312.360229 285.609955,321.578552 
	C283.158051,323.832153 280.670288,325.532532 278.332764,327.419067 
	C275.657623,329.578156 273.115967,331.902618 269.536102,335.004608 
	C275.695953,337.360779 280.356171,339.143372 285.347443,341.053955 
	C285.660797,343.451996 285.643127,345.722015 285.611084,348.415527 
	C279.731934,346.765045 273.887024,344.631470 267.987701,342.661011 
	C266.604889,342.199097 265.037781,342.289032 263.254517,342.313232 
	C262.856567,333.692383 262.759613,324.883362 262.645508,315.616394 
z"/>
<path fill="#084DA0" opacity="1.000000" stroke="none" 
	d="
M330.239899,128.054230 
	C357.886841,128.564209 378.499847,141.558746 393.731567,163.970230 
	C395.483521,166.548004 396.676575,169.505630 398.198792,173.109985 
	C398.179840,181.996216 398.090881,190.059586 397.876343,197.748535 
	C397.639557,197.062149 397.466248,196.757980 397.426147,196.437149 
	C393.193237,162.578094 364.147430,136.240982 330.176086,135.099579 
	C330.254852,132.483261 330.247375,130.268738 330.239899,128.054230 
z"/>
<path fill="#084CA0" opacity="1.000000" stroke="none" 
	d="
M398.358032,237.959549 
	C388.100952,260.576202 370.498749,274.476410 346.817627,280.862000 
	C341.760406,282.225708 336.367645,282.344849 330.697510,282.564362 
	C330.262756,279.898346 330.259979,277.705322 330.679077,275.430969 
	C361.324310,272.919464 382.257782,257.649261 393.618164,229.593933 
	C395.772369,224.273956 396.575806,218.407013 397.959106,213.273346 
	C398.063141,221.822678 398.210571,229.891113 398.358032,237.959549 
z"/>
<path fill="#0C4FA3" opacity="1.000000" stroke="none" 
	d="
M262.552490,247.303497 
	C246.152878,223.403488 246.029877,187.320404 262.461792,164.227203 
	C262.751709,169.142197 262.848450,173.862213 262.863617,178.905426 
	C256.258606,196.883514 256.488647,214.517426 262.854858,232.580536 
	C262.693024,237.787231 262.622772,242.545364 262.552490,247.303497 
z"/>
<path fill="#EDF2F2" opacity="1.000000" stroke="none" 
	d="
M398.581360,237.711273 
	C398.210571,229.891113 398.063141,221.822678 397.960022,212.827911 
	C398.003601,207.308701 398.002777,202.715836 398.001953,198.122971 
	C398.090881,190.059586 398.179840,181.996216 398.316711,173.465912 
	C408.585663,194.418228 408.269684,215.909393 398.581360,237.711273 
z"/>
<path fill="#FBFCF5" opacity="1.000000" stroke="none" 
	d="
M262.677979,247.556610 
	C262.622772,242.545364 262.693024,237.787231 263.071045,232.840790 
	C268.313782,244.268341 276.136139,253.653961 285.715454,262.117615 
	C285.636017,265.190186 285.610840,267.785797 285.585663,270.381409 
	C276.089233,264.777618 268.797760,256.948334 262.677979,247.556610 
z"/>
<path fill="#FBFCF5" opacity="1.000000" stroke="none" 
	d="
M262.945190,178.582230 
	C262.848450,173.862213 262.751709,169.142197 262.627625,163.996246 
	C268.286560,154.268188 275.716309,146.681931 285.285583,141.231232 
	C285.683350,144.110367 285.740509,146.624390 285.619019,149.394287 
	C275.372589,157.296463 268.382172,167.335434 262.945190,178.582230 
z"/>
<path fill="#FAFBF4" opacity="1.000000" stroke="none" 
	d="
M419.545654,263.131836 
	C419.886169,266.626892 419.960693,270.317444 420.082703,274.461823 
	C413.073456,282.197083 406.016724,289.478485 398.661255,296.866150 
	C398.317078,294.269958 398.271667,291.567505 398.169678,288.415710 
	C405.168610,279.753326 412.224121,271.540314 419.545654,263.131836 
z"/>
<path fill="#FAFBF6" opacity="1.000000" stroke="none" 
	d="
M420.022583,135.514557 
	C420.070129,139.560333 420.005310,143.290863 419.876373,147.474365 
	C412.705231,139.777435 405.598206,131.627533 398.308655,123.206573 
	C398.186279,120.240646 398.246521,117.545799 398.347229,114.401909 
	C405.561859,121.035019 412.736053,128.117172 420.022583,135.514557 
z"/>
<path fill="#0A4EA2" opacity="1.000000" stroke="none" 
	d="
M262.586243,291.732971 
	C262.744232,294.605042 262.696106,297.234833 262.633240,300.298279 
	C255.096115,294.006317 247.573746,287.280640 239.937469,280.223663 
	C239.892334,276.559235 239.961136,273.226166 240.075012,269.436218 
	C247.540085,276.483124 254.960098,283.986877 262.586243,291.732971 
z"/>
<path fill="#0B4FA1" opacity="1.000000" stroke="none" 
	d="
M262.356018,110.357613 
	C262.660278,112.825890 262.687592,115.436287 262.754639,118.482620 
	C255.436966,126.506203 248.079559,134.093872 240.428864,141.825974 
	C240.075104,138.635880 240.014648,135.301361 239.886230,131.519272 
	C247.238541,124.214386 254.658813,117.357063 262.356018,110.357613 
z"/>
<path fill="#084DA0" opacity="1.000000" stroke="none" 
	d="
M285.813110,270.627625 
	C285.610840,267.785797 285.636017,265.190186 286.065063,262.256958 
	C293.690704,265.588440 300.912476,269.257477 308.111542,273.357422 
	C308.049103,276.052551 308.009399,278.316772 307.969696,280.581024 
	C300.659973,277.345276 293.350281,274.109528 285.813110,270.627625 
z"/>
<path fill="#084CA0" opacity="1.000000" stroke="none" 
	d="
M285.797668,149.138397 
	C285.740509,146.624390 285.683350,144.110367 285.604431,141.111511 
	C292.806824,137.251831 300.031006,133.876999 307.644806,130.877594 
	C308.065155,133.506805 308.095886,135.760574 307.839844,138.238815 
	C300.301300,142.021652 293.049469,145.580017 285.797668,149.138397 
z"/>
<path fill="#FDFDF6" opacity="1.000000" stroke="none" 
	d="
M308.355347,280.729431 
	C308.009399,278.316772 308.049103,276.052551 308.517944,273.365021 
	C316.050476,273.798584 323.153809,274.655426 330.257202,275.512299 
	C330.259979,277.705322 330.262756,279.898346 330.263123,282.506775 
	C323.087433,282.240692 315.914215,281.559235 308.355347,280.729431 
z"/>
<path fill="#FDFEF8" opacity="1.000000" stroke="none" 
	d="
M308.126617,138.014343 
	C308.095886,135.760574 308.065155,133.506805 308.000793,130.838928 
	C315.077850,129.558609 322.188568,128.692368 329.769592,127.940170 
	C330.247375,130.268738 330.254852,132.483261 329.705261,135.079071 
	C322.140991,136.311707 315.133820,137.163025 308.126617,138.014343 
z"/>
<path fill="#ECEA08" opacity="1.000000" stroke="none" 
	d="
M358.949249,77.050598 
	C354.951782,73.113556 351.204346,69.426537 347.456909,65.739517 
	C347.736877,65.179214 348.016846,64.618912 348.296844,64.058609 
	C360.547882,67.570297 372.798920,71.081985 385.379700,74.688194 
	C380.057953,79.970314 375.641479,84.353882 370.483459,89.473473 
	C366.855499,85.559799 363.027374,81.430214 358.949249,77.050598 
z"/>
<path fill="#F7F105" opacity="1.000000" stroke="none" 
	d="
M343.007812,89.994888 
	C343.179138,90.205811 343.379425,90.396149 343.579681,90.586494 
	C343.317017,90.496552 343.054382,90.406593 342.945129,90.127945 
	C343.098511,89.939247 343.036743,89.974297 343.007812,89.994888 
z"/>
<path fill="#ECEA08" opacity="1.000000" stroke="none" 
	d="
M358.419861,334.419769 
	C362.691986,329.986267 366.714020,325.802734 370.475128,321.890656 
	C375.220947,326.852814 379.507477,331.334808 384.426910,336.478516 
	C372.828064,339.823090 360.584564,343.353546 348.341095,346.884003 
	C347.927338,346.227112 347.513550,345.570221 347.099762,344.913330 
	C350.789764,341.498779 354.479797,338.084259 358.419861,334.419769 
z"/>
<path fill="#F6F002" opacity="1.000000" stroke="none" 
	d="
M444.018677,220.719620 
	C443.553314,220.350235 442.992035,219.683380 442.992188,219.016663 
	C442.994141,209.445480 443.071747,199.874313 443.493500,190.074539 
	C449.105042,194.625763 454.354218,199.405594 460.239655,204.764771 
	C454.221863,210.633270 449.202881,215.527740 444.018677,220.719620 
z"/>
<path fill="#F8F101" opacity="1.000000" stroke="none" 
	d="
M307.839844,138.238800 
	C315.133820,137.163025 322.140991,136.311707 329.619019,135.480896 
	C364.147430,136.240982 393.193237,162.578094 397.426147,196.437149 
	C397.466248,196.757980 397.639557,197.062149 397.876343,197.748535 
	C398.002777,202.715836 398.003601,207.308701 398.003448,212.347000 
	C396.575806,218.407013 395.772369,224.273956 393.618164,229.593933 
	C382.257782,257.649261 361.324310,272.919464 330.679077,275.430969 
	C323.153809,274.655426 316.050476,273.798584 308.540710,272.934143 
	C300.912476,269.257477 293.690704,265.588440 286.119263,261.779999 
	C276.136139,253.653961 268.313782,244.268341 263.162598,232.392242 
	C256.488647,214.517426 256.258606,196.883514 262.863617,178.905426 
	C268.382172,167.335434 275.372589,157.296463 285.619019,149.394287 
	C293.049469,145.580017 300.301300,142.021652 307.839844,138.238800 
M308.374176,233.899170 
	C314.955353,237.323700 321.450653,240.842056 326.175903,246.847794 
	C328.069458,249.254501 329.197510,247.312012 330.825623,245.499527 
	C335.368469,242.315338 340.087677,239.350891 344.404724,235.885452 
	C348.760986,232.388550 353.299500,228.851334 356.711517,224.509338 
	C361.600800,218.287430 365.540100,211.318985 369.486145,205.279724 
	C365.649933,199.525497 361.786072,193.027893 357.198639,187.089264 
	C354.002472,182.951706 350.084137,179.245392 345.999176,175.953568 
	C341.036865,171.954788 335.560089,168.594376 329.947052,164.318985 
	C328.759521,164.149994 326.862732,163.423889 326.491699,163.896255 
	C321.558533,170.176758 314.516510,173.456070 307.323456,177.593597 
	C304.230988,181.032364 300.258057,184.028290 298.253387,188.014160 
	C295.280212,193.925674 291.651184,199.038620 286.786682,203.403183 
	C286.191467,203.937210 285.846985,204.750641 285.898315,204.674423 
	C290.305756,211.314880 294.243164,217.744125 298.707275,223.784073 
	C301.329803,227.332352 304.789948,230.261566 308.374176,233.899170 
z"/>
<path fill="#0549A6" opacity="1.000000" stroke="none" 
	d="
M330.305908,164.957794 
	C335.560089,168.594376 341.036865,171.954788 345.999176,175.953568 
	C350.084137,179.245392 354.002472,182.951706 357.198639,187.089264 
	C361.786072,193.027893 365.649933,199.525497 369.486145,205.279724 
	C365.540100,211.318985 361.600800,218.287430 356.711517,224.509338 
	C353.299500,228.851334 348.760986,232.388550 344.404724,235.885452 
	C340.087677,239.350891 335.368469,242.315338 330.548462,245.227234 
	C330.282837,218.289230 330.294373,191.623505 330.305908,164.957794 
z"/>
<path fill="#FEFEFE" opacity="1.000000" stroke="none" 
	d="
M330.126465,164.638397 
	C330.294373,191.623505 330.282837,218.289230 330.297729,245.414780 
	C329.197510,247.312012 328.069458,249.254501 326.175903,246.847794 
	C321.450653,240.842056 314.955353,237.323700 308.211090,233.187775 
	C308.000702,214.102676 307.953430,195.728943 307.906158,177.355225 
	C314.516510,173.456070 321.558533,170.176758 326.491699,163.896255 
	C326.862732,163.423889 328.759521,164.149994 330.126465,164.638397 
z"/>
<path fill="#0247A4" opacity="1.000000" stroke="none" 
	d="
M307.614807,177.474411 
	C307.953430,195.728943 308.000702,214.102676 307.960663,232.972809 
	C304.789948,230.261566 301.329803,227.332352 298.707275,223.784073 
	C294.243164,217.744125 290.305756,211.314880 285.898315,204.674423 
	C285.846985,204.750641 286.191467,203.937210 286.786682,203.403183 
	C291.651184,199.038620 295.280212,193.925674 298.253387,188.014160 
	C300.258057,184.028290 304.230988,181.032364 307.614807,177.474411 
z"/>
</svg>